<?xml version="1.0" encoding="UTF-8"?>
<svg version="1.1" xmlns="http://www.w3.org/2000/svg" width="512" height="512">
<path d="M0 0 C1.08145156 0.85654792 2.16442668 1.71118198 3.25 2.5625 C27.16844594 23.76294072 40.73738036 56.59758193 43 88 C44.15658853 108.88816273 40.74606084 128.27489818 34 148 C33.71527832 148.84143555 33.43055664 149.68287109 33.13720703 150.54980469 C22.21949207 182.28299719 4.05450364 211.00369214 -18.73046875 235.546875 C-20.72469454 237.70242371 -22.65283403 239.89486135 -24.5625 242.125 C-30.83917416 249.32991471 -37.74665761 255.79857573 -45 262 C-45.96035156 262.84949219 -46.92070312 263.69898438 -47.91015625 264.57421875 C-62.31907709 277.25242285 -77.78958297 288.72838384 -94 299 C-94.98323242 299.62455078 -94.98323242 299.62455078 -95.98632812 300.26171875 C-112.37723473 310.60896406 -129.27025695 320.41889539 -146.6875 328.9375 C-147.35144775 329.27354248 -148.01539551 329.60958496 -148.69946289 329.95581055 C-152.98581336 331.977021 -155.44703319 332.08027569 -160 331 C-162.9465332 329.74755859 -162.9465332 329.74755859 -166.05078125 328.1484375 C-167.21174316 327.55208496 -168.37270508 326.95573242 -169.56884766 326.34130859 C-170.81723767 325.68683647 -172.06510962 325.03137536 -173.3125 324.375 C-173.95016296 324.04220032 -174.58782593 323.70940063 -175.24481201 323.36651611 C-198.71399264 311.10091083 -221.35437384 297.24109596 -242.3359375 281.046875 C-244.16482243 279.64169068 -246.0267488 278.27879843 -247.9140625 276.953125 C-255.50188537 271.43859458 -255.50188537 271.43859458 -256.4375 266.8125 C-255.8854984 262.00220032 -254.56380795 261.16729201 -251 258 C-248.85394626 256.36336306 -246.71266936 254.78881096 -244.5 253.25 C-243.96375 252.87101562 -243.4275 252.49203125 -242.875 252.1015625 C-242.3078125 251.70195312 -241.740625 251.30234375 -241.15625 250.890625 C-240.54450928 250.43969482 -239.93276855 249.98876465 -239.30249023 249.52416992 C-237 248 -237 248 -233.65258789 246.3449707 C-227.14405984 242.97795225 -227.14405984 242.97795225 -223.35296631 237.00250244 C-222.49259353 231.24184875 -222.99929189 225.46721169 -223.4375 219.6875 C-223.58558707 217.07900052 -223.71466678 214.47124338 -223.82301331 211.86079407 C-223.89525631 210.2444627 -223.99308718 208.62901755 -224.11973572 207.01603699 C-224.31529432 203.63147281 -224.35874249 201.52743853 -222.4206543 198.67797852 C-219.50141945 196.65438789 -216.58535272 195.2061651 -213.3359375 193.765625 C-212.70265533 193.48273621 -212.06937317 193.19984741 -211.41690063 192.90838623 C-210.08584858 192.31592739 -208.7528246 191.72788103 -207.41796875 191.14404297 C-205.37040107 190.24798742 -203.32942399 189.33811012 -201.2890625 188.42578125 C-191.31034108 184 -191.31034108 184 -189 184 C-189.01571045 182.81446533 -189.0314209 181.62893066 -189.04760742 180.4074707 C-189.10199565 175.999988 -189.13638246 171.59253485 -189.16479492 167.18481445 C-189.17986128 165.27883919 -189.20031824 163.37289848 -189.22631836 161.46704102 C-189.26279642 158.72403424 -189.27974792 155.98148672 -189.29296875 153.23828125 C-189.30845261 152.38913651 -189.32393646 151.53999176 -189.33988953 150.66511536 C-189.34121517 145.98220665 -189.17072968 142.72187269 -186 139 C-183.98217773 137.74560547 -183.98217773 137.74560547 -181.68359375 136.8671875 C-180.83603516 136.53589844 -179.98847656 136.20460938 -179.11523438 135.86328125 C-178.23158203 135.53714844 -177.34792969 135.21101562 -176.4375 134.875 C-175.58091797 134.54113281 -174.72433594 134.20726562 -173.84179688 133.86328125 C-167.97725489 131.61277981 -162.03846419 129.72481276 -156 128 C-156.06058594 127.2972998 -156.12117188 126.59459961 -156.18359375 125.87060547 C-156.78190622 118.79325932 -157.29598537 111.7139719 -157.75097656 104.62597656 C-157.90727066 102.35021188 -158.08331503 100.07562679 -158.28808594 97.80371094 C-159.85706052 80.33809273 -159.85706052 80.33809273 -153.65478516 72.39160156 C-152.00862414 70.51843227 -150.28932933 68.75963999 -148.52734375 66.99609375 C-145.725069 64.36782368 -145.725069 64.36782368 -146.11938477 61.76977539 C-147.24901094 58.2167926 -148.85101236 54.985776 -150.5625 51.6875 C-150.9138501 50.99615967 -151.2652002 50.30481934 -151.62719727 49.5925293 C-152.74570657 47.39202432 -153.87186177 45.19558243 -155 43 C-156.48614631 40.1076623 -157.96422695 37.21141219 -159.4375 34.3125 C-159.77918213 33.65403076 -160.12086426 32.99556152 -160.47290039 32.31713867 C-162.20191782 28.91314935 -163.64438232 25.82624492 -164 22 C-158.15580935 6.65899953 -139.65543922 -6.39173483 -126 -14 C-124.53240234 -14.81791016 -124.53240234 -14.81791016 -123.03515625 -15.65234375 C-82.63155664 -36.96592045 -33.99085772 -29.54238976 0 0 Z M-143 20 C-145.03863287 22.10581429 -145.03863287 22.10581429 -146 25 C-144.95244881 27.93033583 -143.87782707 30.22800217 -142.35546875 32.8984375 C-141.9516951 33.65162262 -141.54792145 34.40480774 -141.13191223 35.18081665 C-139.83753365 37.59063451 -138.51526484 39.9834366 -137.1875 42.375 C-135.87306753 44.76058534 -134.56559593 47.14906874 -133.27522278 49.54776001 C-132.4719052 51.03944368 -131.65453453 52.52366999 -130.82133484 53.99887085 C-128.3875533 58.49777851 -127.42258422 61.75759807 -128 67 C-129.5390625 69.84375 -129.5390625 69.84375 -131.625 72.5 C-132.34945312 73.45132813 -133.07390625 74.40265625 -133.8203125 75.3828125 C-135.6232931 77.54768168 -137.47624988 79.428714 -139.5 81.375 C-142.93155663 85.31803526 -142.51171535 89.28389522 -142.27734375 94.30859375 C-142.18582031 95.52675781 -142.09429687 96.74492187 -142 98 C-141.83078222 100.64570648 -141.66366338 103.29145274 -141.5 105.9375 C-141.45576904 106.63037109 -141.41153809 107.32324219 -141.3659668 108.03710938 C-140.98801211 114.31438269 -140.81991719 120.58708005 -140.75 126.875 C-140.7180957 128.31153931 -140.7180957 128.31153931 -140.68554688 129.77709961 C-140.68103516 130.67307861 -140.67652344 131.56905762 -140.671875 132.4921875 C-140.6625293 133.28995605 -140.65318359 134.08772461 -140.64355469 134.90966797 C-141.11094731 137.65063759 -141.76441683 138.35124653 -144 140 C-146.10532553 140.97664644 -148.25183589 141.86609073 -150.41796875 142.69921875 C-151.03521317 142.9391304 -151.65245758 143.17904205 -152.28840637 143.42622375 C-154.2519754 144.18746624 -156.21957607 144.93759716 -158.1875 145.6875 C-159.52306786 146.20304765 -160.85835784 146.71931576 -162.19335938 147.23632812 C-165.45906191 148.49924795 -168.72847041 149.75224058 -172 151 C-172.03758423 152.73286255 -172.03758423 152.73286255 -172.07592773 154.50073242 C-172.17026945 158.79657629 -172.27042437 163.09226854 -172.37231445 167.38793945 C-172.41556221 169.24532519 -172.45724428 171.10274808 -172.49731445 172.96020508 C-172.5552637 175.63374008 -172.61888652 178.30708981 -172.68359375 180.98046875 C-172.70866249 182.2213752 -172.70866249 182.2213752 -172.73423767 183.48735046 C-172.9593045 192.29393529 -172.9593045 192.29393529 -174 195 C-176.15136719 196.13842773 -176.15136719 196.13842773 -179 197 C-183.1019694 198.72476458 -187.19382949 200.47307616 -191.28515625 202.22290039 C-192.60175516 202.78549776 -193.91881795 203.34701069 -195.23632812 203.9074707 C-197.1429318 204.7185346 -199.04817389 205.53271984 -200.953125 206.34765625 C-202.65710449 207.07480835 -202.65710449 207.07480835 -204.39550781 207.81665039 C-206.87745267 208.76036082 -206.87745267 208.76036082 -208 210 C-208.0019081 212.66886372 -207.94362915 215.31445033 -207.8515625 217.98046875 C-207.81453753 219.63602697 -207.77944355 221.29162929 -207.74609375 222.94726562 C-207.69070316 225.56410324 -207.62533531 228.17859422 -207.52685547 230.79418945 C-207.43555462 233.31500099 -207.38976886 235.83336311 -207.3515625 238.35546875 C-207.31229645 239.13069382 -207.2730304 239.90591888 -207.23257446 240.70463562 C-207.21573657 244.00858654 -207.29300073 246.13649473 -209.43257141 248.74969482 C-211.21792407 250.30836837 -213.03958109 251.67014604 -215 253 C-216.25671509 253.9278833 -216.25671509 253.9278833 -217.53881836 254.87451172 C-218.29815674 255.38771973 -219.05749512 255.90092773 -219.83984375 256.4296875 C-220.67451172 256.996875 -221.50917969 257.5640625 -222.36914062 258.1484375 C-223.21669922 258.71820313 -224.06425781 259.28796875 -224.9375 259.875 C-226.24944336 260.76445313 -226.24944336 260.76445313 -227.58789062 261.671875 C-229.72270995 263.11841924 -231.86008022 264.56101672 -234 266 C-230.53147486 269.76126511 -226.60828285 272.58350543 -222.4375 275.5 C-221.68936035 276.02408447 -220.9412207 276.54816895 -220.17041016 277.08813477 C-204.36867523 288.0601961 -187.86937343 297.76934831 -171 307 C-170.24122559 307.41781738 -169.48245117 307.83563477 -168.70068359 308.26611328 C-166.76808494 309.32136349 -164.82590537 310.35408751 -162.875 311.375 C-161.84117187 311.91898437 -160.80734375 312.46296875 -159.7421875 313.0234375 C-155.79456776 314.42928499 -153.23307888 313.54089877 -149.45483398 311.88354492 C-148.56094971 311.42052979 -147.66706543 310.95751465 -146.74609375 310.48046875 C-145.73716064 309.9592041 -144.72822754 309.43793945 -143.6887207 308.90087891 C-142.07936646 308.05275635 -142.07936646 308.05275635 -140.4375 307.1875 C-139.32141357 306.60145996 -138.20532715 306.01541992 -137.05541992 305.41162109 C-114.14809009 293.27085066 -92.22315045 279.25175183 -72 263 C-71.07445312 262.26652344 -70.14890625 261.53304688 -69.1953125 260.77734375 C-63.19260709 255.95647411 -57.49109481 250.8708895 -51.85546875 245.6328125 C-49.33696101 243.31068635 -46.77692259 241.05461464 -44.1875 238.8125 C-40.81003084 235.82171783 -37.83132211 232.68094761 -34.92578125 229.234375 C-32.63497958 226.57648746 -30.22194453 224.05077103 -27.8125 221.5 C-12.23928948 204.6699758 0.51844124 184.8457021 10 164 C10.33483398 163.26845703 10.66966797 162.53691406 11.01464844 161.78320312 C25.98405473 128.69589569 32.91792793 93.11498282 20.26123047 57.94726562 C9.4542093 30.03851445 -10.44296871 7.2073103 -38 -5 C-75.79390284 -19.52948352 -115.42841101 -8.88452179 -143 20 Z " fill="#000000" transform="translate(444,125)"/>
<path d="M0 0 C2.95440852 3.13167303 3.07016831 4.98993126 3.1484375 9.27734375 C2.89405388 10.77583287 2.60215371 12.26824092 2.28125 13.75390625 C-0.77225836 28.4285897 3.3699622 37.96212397 10.71142578 50.37744141 C17.33713077 61.61440518 17.33713077 61.61440518 16.1484375 68.27734375 C14.36227188 71.01613104 12.44719816 72.97858309 10.1484375 75.27734375 C11.42375573 77.78275616 12.73786265 80.24896223 14.0859375 82.71484375 C14.43978516 83.42189453 14.79363281 84.12894531 15.15820312 84.85742188 C17.34040097 88.7865255 17.34040097 88.7865255 21.11279297 90.95776367 C23.48121962 91.24146238 25.76347104 91.2931476 28.1484375 91.27734375 C29.84138197 91.35434801 31.53410077 91.43646669 33.2265625 91.5234375 C35.83055193 91.62404618 38.4343243 91.71593203 41.0390625 91.79492188 C49.67748534 92.14388255 49.67748534 92.14388255 53.1484375 94.27734375 C56.85437821 99.7409523 58.45773713 105.84148167 60.3984375 112.08984375 C60.96304688 113.81557617 60.96304688 113.81557617 61.5390625 115.57617188 C65.16287422 127.20034735 65.16287422 127.20034735 63.1484375 133.27734375 C61.11343219 135.59254168 58.79199354 137.17803379 56.2109375 138.83984375 C55.53522705 139.30237549 54.8595166 139.76490723 54.16333008 140.24145508 C52.80530372 141.16913575 51.44067742 142.08723529 50.06933594 142.99511719 C47.44135562 144.74933079 44.89459158 146.6115078 42.3359375 148.46484375 C38.40370682 151.27734375 38.40370682 151.27734375 36.1484375 151.27734375 C36.55739258 152.81273804 36.55739258 152.81273804 36.97460938 154.37915039 C37.98966561 158.19931216 38.99331525 162.02239558 39.99365234 165.84643555 C40.42709773 167.49698652 40.8635787 169.14674357 41.30322266 170.7956543 C41.9368348 173.17421416 42.55925597 175.55547267 43.1796875 177.9375 C43.47498352 179.03167992 43.47498352 179.03167992 43.77624512 180.14796448 C44.92456607 184.61028757 45.47118455 188.62985856 45.1484375 193.27734375 C42.33804372 198.03117178 37.86424842 200.9641654 33.4609375 204.15234375 C32.10220209 205.1488369 30.74413429 206.14624093 29.38671875 207.14453125 C28.70689941 207.64307617 28.02708008 208.14162109 27.32666016 208.65527344 C23.55186916 211.46627001 19.85048118 214.37156023 16.1484375 217.27734375 C16.39078125 218.1087085 16.633125 218.94007324 16.8828125 219.79663086 C17.78691084 222.91946476 18.68013863 226.04515884 19.56640625 229.1730957 C19.95018087 230.51936548 20.33811073 231.86445864 20.73046875 233.20825195 C25.07885087 248.12253706 25.07885087 248.12253706 24.1484375 255.27734375 C22.42578125 258.0625 22.42578125 258.0625 20.0859375 260.33984375 C18.84650391 261.59474609 18.84650391 261.59474609 17.58203125 262.875 C16.77894531 263.66777344 15.97585937 264.46054687 15.1484375 265.27734375 C13.96781596 266.59833643 12.79987611 267.93083789 11.6484375 269.27734375 C8.20880625 273.22092097 4.73519059 277.13212038 1.21484375 281.00390625 C0.0200237 282.31843417 -1.16537422 283.64193138 -2.32421875 284.98828125 C-5.29724243 288.29588959 -7.44909436 289.02844096 -11.8515625 289.27734375 C-14.50706162 288.38718208 -16.74891759 287.46203663 -19.2265625 286.21484375 C-19.9484375 285.86196289 -20.6703125 285.50908203 -21.4140625 285.14550781 C-38.41413761 276.6383632 -54.66537915 266.70429858 -69.8515625 255.27734375 C-70.46676758 254.81763184 -71.08197266 254.35791992 -71.71582031 253.88427734 C-80.59867114 247.20674228 -88.85506091 239.98762206 -96.8515625 232.27734375 C-97.49416016 231.66197754 -98.13675781 231.04661133 -98.79882812 230.41259766 C-113.39701854 216.37076205 -124.98745098 201.34500896 -135.8515625 184.27734375 C-136.23973145 183.6745459 -136.62790039 183.07174805 -137.02783203 182.45068359 C-155.95417593 152.71908672 -161.32936862 115.46584364 -153.8515625 81.27734375 C-147.19242498 51.65451378 -129.78460102 24.39602717 -104.1640625 7.65234375 C-75.33452334 -10.54502494 -30.92801644 -18.6839113 0 0 Z M-116.3046875 40.0078125 C-135.0178169 63.22351411 -142.95669835 92.53606238 -140.54296875 122.05078125 C-135.29942163 166.31931183 -105.93830242 205.87236785 -71.68359375 233.0703125 C-70.74902344 233.79863281 -69.81445312 234.52695312 -68.8515625 235.27734375 C-67.34142578 236.47810547 -67.34142578 236.47810547 -65.80078125 237.703125 C-51.38704658 249.08110164 -35.9227666 258.42555641 -19.8515625 267.27734375 C-18.73910156 267.90769531 -17.62664062 268.53804688 -16.48046875 269.1875 C-14.00652203 270.40884049 -14.00652203 270.40884049 -11.77734375 270.28125 C-8.37616626 268.50822238 -6.21356815 265.56422461 -3.72729492 262.70776367 C-1.73838697 260.42480169 0.24121466 258.18521313 2.390625 256.05078125 C3.03257812 255.40367187 3.67453125 254.7565625 4.3359375 254.08984375 C4.90699219 253.53941406 5.47804687 252.98898437 6.06640625 252.421875 C9.57806284 245.46194912 3.75545531 233.975858 1.58789062 227.12109375 C-1.89962888 215.68376269 -1.89962888 215.68376269 -0.8515625 210.27734375 C1.46763941 207.4612516 4.21337231 205.42021197 7.1484375 203.27734375 C8.60214475 202.13746091 10.0552749 200.99684168 11.5078125 199.85546875 C12.96914674 198.74318761 14.43269539 197.63380982 15.8984375 196.52734375 C17.01025391 195.68236328 17.01025391 195.68236328 18.14453125 194.8203125 C21.47055833 192.29444274 24.80619235 189.78171047 28.1484375 187.27734375 C27.56804483 184.61000723 26.98460062 181.94341442 26.3984375 179.27734375 C26.22086914 178.466604 26.04330078 177.65586426 25.86035156 176.82055664 C24.81429887 172.09907187 23.68175428 167.41594105 22.43310547 162.74414062 C18.61679927 148.25960314 18.61679927 148.25960314 20.1484375 144.27734375 C23.03423225 140.96203536 26.50926979 138.70633693 30.1484375 136.27734375 C31.55903549 135.29808007 32.96777898 134.31614152 34.375 133.33203125 C38.27753491 130.61394688 42.20649401 127.93791107 46.1484375 125.27734375 C44.98192324 119.34870658 43.39324392 113.88935981 41.1484375 108.27734375 C40.2605957 108.23770508 39.37275391 108.19806641 38.45800781 108.15722656 C35.15450256 108.00074018 31.85277737 107.82736873 28.55078125 107.64257812 C27.12339273 107.56615714 25.69562948 107.49642277 24.26757812 107.43359375 C22.21088026 107.34193034 20.15674387 107.22603722 18.1015625 107.10546875 C16.86567383 107.04262695 15.62978516 106.97978516 14.35644531 106.91503906 C9.50200471 105.95006198 8.02805696 103.57104096 5.33325195 99.60766602 C1.69902284 93.5944562 1.69902284 93.5944562 0.49291992 91.5690918 C-0.53733249 89.84274265 -1.58144714 88.12534667 -2.62695312 86.40820312 C-3.28244141 85.31443359 -3.93792969 84.22066406 -4.61328125 83.09375 C-5.21100342 82.09802979 -5.80872559 81.10230957 -6.42456055 80.07641602 C-7.80726019 77.36424298 -8.56223802 75.29738543 -8.8515625 72.27734375 C-7.26924866 68.11335996 -5.64852645 65.63407999 -1.8515625 63.27734375 C-2.9496682 59.32813227 -4.53137462 55.86406586 -6.453125 52.265625 C-6.94296875 51.34201172 -7.4328125 50.41839844 -7.9375 49.46679688 C-8.95718466 47.56071121 -9.9909203 45.66207087 -11.0390625 43.77148438 C-14.58615841 37.00103544 -15.52677635 31.86563955 -14.8515625 24.27734375 C-14.779375 23.05660156 -14.7071875 21.83585937 -14.6328125 20.578125 C-14.54 19.59199219 -14.4471875 18.60585937 -14.3515625 17.58984375 C-14.25875 16.57535156 -14.1659375 15.56085938 -14.0703125 14.515625 C-13.998125 13.77699219 -13.9259375 13.03835937 -13.8515625 12.27734375 C-22.34990373 8.87800726 -30.71663479 6.9354346 -39.8515625 6.27734375 C-40.55152344 6.22320312 -41.25148438 6.1690625 -41.97265625 6.11328125 C-70.81023181 5.01375497 -97.50969751 18.60905797 -116.3046875 40.0078125 Z " fill="#000000" transform="translate(181.8515625,94.72265625)"/>
<path d="M0 0 C2.40759783 1.61008105 4.03717326 2.90828941 6 4.9375 C6.51272461 5.44112061 7.02544922 5.94474121 7.55371094 6.46362305 C9.05732764 7.95614905 10.52955046 9.4748984 12 11 C13.12148437 12.10988281 13.12148437 12.10988281 14.265625 13.2421875 C24.19189062 23.59833077 29.87051693 37.47885323 35.49438477 50.47973633 C36.5752509 52.96684018 37.68263259 55.44107295 38.79101562 57.91601562 C39.48861449 59.5149125 40.18463775 61.11449796 40.87890625 62.71484375 C41.20895157 63.44412582 41.53899689 64.1734079 41.87904358 64.92478943 C43.87538877 69.63500113 44.44317866 72.9026914 43 78 C41.52539062 79.8984375 41.52539062 79.8984375 39.65625 81.375 C30.61171737 89.08175306 30.61171737 89.08175306 26.9609375 100.015625 C26.83443798 103.12945924 26.8707982 106.16949152 27.03320312 109.28125 C27.39962141 116.43373485 27.39962141 116.43373485 25.0703125 119.734375 C16.80245023 123.14250143 7.56993823 118.38451087 -0.33154297 115.44458008 C-2.38577792 114.68350689 -4.44790164 113.94752346 -6.51171875 113.21289062 C-7.8286675 112.73064559 -9.14509423 112.24697205 -10.4609375 111.76171875 C-11.64478027 111.32819092 -12.82862305 110.89466309 -14.04833984 110.44799805 C-17.20958194 108.89718524 -18.34652669 108.0633221 -20 105 C-20.78029736 102.70765819 -21.46257207 100.38102525 -22.078125 98.0390625 C-22.25382019 97.37087494 -22.42951538 96.70268738 -22.61053467 96.01425171 C-22.97805699 94.60510101 -23.34086288 93.19471275 -23.69921875 91.78320312 C-24.24746553 89.63493118 -24.81801177 87.49345083 -25.390625 85.3515625 C-25.74615959 83.97691557 -26.10037032 82.60192542 -26.453125 81.2265625 C-26.77442383 79.98471191 -27.09572266 78.74286133 -27.42675781 77.46337891 C-28.01649322 73.90035227 -27.95634094 71.46941341 -27 68 C-24.24349528 65.31799541 -21.42780185 63.66639408 -18 62 C-18.39976314 57.60260548 -18.92917143 53.27508316 -19.734375 48.93359375 C-19.86932373 48.20519287 -20.00427246 47.47679199 -20.14331055 46.72631836 C-20.41628453 45.27655145 -20.69605533 43.82804251 -20.98364258 42.38110352 C-23.06413373 31.32841393 -21.43103024 24.34513364 -16.6875 14.0625 C-16.18798828 12.92748047 -15.68847656 11.79246094 -15.17382812 10.62304688 C-11.73862378 2.99279829 -9.33103199 -1.70402418 0 0 Z M-2 22 C-7.02855858 29.85452539 -5.8081769 36.19300903 -4 45 C0.12188755 65.59954128 0.12188755 65.59954128 -1 71 C-3.27613362 74.12000629 -6.56730046 75.39807355 -10 77 C-8.92705776 87.82590877 -8.92705776 87.82590877 -4.01171875 97.015625 C-1.64794216 98.04441895 0.45864376 98.58542313 3 99 C4.5219519 99.41256217 6.04287915 99.82893277 7.5625 100.25 C9.2640625 100.62125 9.2640625 100.62125 11 101 C10.96777344 100.17757812 10.93554688 99.35515625 10.90234375 98.5078125 C10.99008611 90.06504802 12.71694227 86.06164037 18.69140625 80.14453125 C19.45324219 79.43683594 20.21507812 78.72914063 21 78 C23.0198885 76.02450465 24.42812751 74.38490999 26 72 C24.31963045 65.52334767 21.30826556 59.37113737 18.67944336 53.22436523 C18.10478452 51.87421636 17.53569878 50.52168085 16.97241211 49.16674805 C13.55283176 40.94473508 9.92000949 33.76382036 4 27 C3.236875 25.989375 2.47375 24.97875 1.6875 23.9375 C1.130625 23.298125 0.57375 22.65875 0 22 C-0.66 22 -1.32 22 -2 22 Z " fill="#000000" transform="translate(228,62)"/>
<path d="M0 0 C1.49563477 0.64582031 1.49563477 0.64582031 3.02148438 1.3046875 C3.97732422 1.73523437 4.93316406 2.16578125 5.91796875 2.609375 C6.78574951 2.99577148 7.65353027 3.38216797 8.54760742 3.78027344 C11.32546378 5.58287075 12.41520424 7.26963917 13.8125 10.25 C13.68783099 13.36672513 13.33511692 15.40800608 11.6875 18.0625 C8.78790305 19.8989114 6.18782923 20.42264827 2.8125 20.25 C-1.26519179 19.01479765 -5.07170666 17.27972373 -8.9375 15.5 C-9.97777344 15.04367188 -11.01804688 14.58734375 -12.08984375 14.1171875 C-20.7393279 10.24562021 -20.7393279 10.24562021 -23.1875 7.25 C-23.5859375 5.09375 -23.5859375 5.09375 -23.5625 2.75 C-23.57023438 1.9765625 -23.57796875 1.203125 -23.5859375 0.40625 C-23.0931562 -2.26056642 -22.3151451 -3.11181317 -20.1875 -4.75 C-13.12903984 -7.10282005 -6.38093217 -2.8879039 0 0 Z " fill="#000000" transform="translate(177.1875,60.75)"/>
<path d="M0 0 C2.4375 1.5 2.4375 1.5 4 4 C4.74129947 11.08966195 2.70678267 15.96966586 -0.3125 22.3125 C-0.71662109 23.20517578 -1.12074219 24.09785156 -1.53710938 25.01757812 C-4.9680126 32.43167631 -4.9680126 32.43167631 -8 35 C-11.01523464 36.03152764 -12.60370446 36.1105941 -15.6875 35.25 C-18 34 -18 34 -20 31 C-20.84186989 24.42499619 -18.47123169 19.61750991 -15.75 13.8125 C-15.35425781 12.92369141 -14.95851563 12.03488281 -14.55078125 11.11914062 C-8.87386909 -1.26769558 -8.87386909 -1.26769558 0 0 Z " fill="#000000" transform="translate(295,74)"/>
</svg>
