<?xml version="1.0" encoding="UTF-8"?>
<svg version="1.1" xmlns="http://www.w3.org/2000/svg" width="512" height="512">
<path d="M0 0 C0.81730591 -0.00453111 1.63461182 -0.00906223 2.47668457 -0.01373065 C5.21888864 -0.02640417 7.96089486 -0.02475239 10.703125 -0.02310181 C12.66764583 -0.02908511 14.63216431 -0.03589019 16.59667969 -0.04345703 C21.93539666 -0.06114178 27.27404954 -0.06581338 32.61279297 -0.0670886 C37.06633178 -0.06898631 41.51985562 -0.07634215 45.97338867 -0.08343279 C56.47705849 -0.09972282 66.98069401 -0.10460108 77.484375 -0.10317993 C88.3294287 -0.10197748 99.17428371 -0.12309855 110.01928711 -0.15466726 C119.3238214 -0.18078936 128.62829063 -0.19154898 137.93286133 -0.19026911 C143.49307232 -0.1897584 149.05310669 -0.19550236 154.61328125 -0.21662521 C159.84015868 -0.23593982 165.06668971 -0.23617865 170.2935791 -0.22159195 C172.21407576 -0.21949449 174.13459373 -0.22426016 176.05505371 -0.23631287 C178.6725307 -0.25167889 181.28880025 -0.24251528 183.90625 -0.22705078 C184.67005981 -0.23733791 185.43386963 -0.24762503 186.2208252 -0.25822389 C189.72745923 -0.21229158 191.59678351 -0.01054733 194.40136719 2.17723656 C196.03375019 4.37602617 196.78785591 5.54048562 196.953125 8.26742554 C196.1987135 11.07932295 195.39991914 12.809242 193.36384201 14.89722157 C189.98710195 16.81649397 186.84777021 16.67238701 183.06915283 16.62818909 C182.26944242 16.63075236 181.46973201 16.63331564 180.64578795 16.63595659 C177.9631985 16.64090228 175.28117051 16.62438877 172.59863281 16.60800171 C170.6768851 16.60715561 168.75513643 16.60763025 166.83338928 16.60932922 C161.61263359 16.61019125 156.39208396 16.59253178 151.17137623 16.57160735 C145.71678011 16.55287523 140.26217947 16.55109284 134.80755615 16.54753113 C124.47680606 16.53820048 114.14615101 16.51357286 103.8154428 16.48348266 C92.05500676 16.44997041 80.29456622 16.43346063 68.53409433 16.41839635 C44.34038516 16.38702422 20.1467604 16.33424387 -4.046875 16.26742554 C-4.376875 20.88742554 -4.706875 25.50742554 -5.046875 30.26742554 C80.423125 30.26742554 165.893125 30.26742554 253.953125 30.26742554 C253.623125 25.97742554 253.293125 21.68742554 252.953125 17.26742554 C251.7978833 17.25807983 250.6426416 17.24873413 249.45239258 17.23910522 C245.15626818 17.19915944 240.86085644 17.13338808 236.56518555 17.05990601 C234.70785697 17.03172294 232.85040905 17.01049514 230.99291992 16.99642944 C228.31887839 16.97496269 225.64626765 16.92829484 222.97265625 16.87680054 C222.14538528 16.8755719 221.31811432 16.87434326 220.46577454 16.87307739 C216.46763779 16.77205923 214.41206322 16.55541309 210.94799805 14.38168335 C208.60429066 11.89771492 208.03606927 10.66814061 207.953125 7.26742554 C209.01711573 3.45479207 209.5782901 2.51731547 212.953125 0.26742554 C214.93719482 0 214.93719482 0 217.22167969 -0.02310181 C218.07977234 -0.03586151 218.93786499 -0.04862122 219.82196045 -0.06176758 C221.20946503 -0.06510605 221.20946503 -0.06510605 222.625 -0.06851196 C223.58077942 -0.07516876 224.53655884 -0.08182556 225.52130127 -0.08868408 C227.54543127 -0.09881319 229.56959468 -0.10350102 231.59375 -0.10317993 C234.67765095 -0.10753846 237.76010371 -0.14381484 240.84375 -0.18179321 C242.81249512 -0.18766438 244.78124702 -0.19163177 246.75 -0.19351196 C248.12535919 -0.21506851 248.12535919 -0.21506851 249.52850342 -0.23706055 C255.53573964 -0.19460732 259.02340435 0.78588037 263.953125 4.26742554 C268.02826533 8.56284372 269.88350471 12.14400669 270.078125 18.07992554 C270.036875 19.13180054 269.995625 20.18367554 269.953125 21.26742554 C271.066875 21.10242554 272.180625 20.93742554 273.328125 20.76742554 C295.46799883 18.09670649 316.53469086 24.64524349 334.140625 38.07992554 C351.74064514 52.77946236 361.43503688 72.20059175 363.703125 94.82992554 C365.08686429 117.95095106 357.22936061 138.96773358 341.953125 156.26742554 C326.60044097 172.44124177 306.85942966 180.01669723 284.95703125 181.23226929 C273.85049458 181.49144909 263.29225833 179.30125407 252.953125 175.26742554 C252.59541016 176.53392944 252.59541016 176.53392944 252.23046875 177.82601929 C250.79291734 181.69905536 248.82209581 184.93588318 246.515625 188.32992554 C246.07822998 188.97896851 245.64083496 189.62801147 245.19018555 190.29672241 C240.56872023 197.02540557 235.40620819 203.20278162 229.953125 209.26742554 C229.37304688 209.91969116 228.79296875 210.57195679 228.1953125 211.24398804 C221.74705602 218.08108411 213.75176067 224.06833509 205.953125 229.26742554 C206.53084152 229.27107117 207.10855804 229.2747168 207.70378113 229.2784729 C213.72260612 229.3203183 219.74067 229.38967796 225.7590332 229.47494507 C228.00439844 229.50315195 230.24986291 229.52436786 232.49536133 229.53842163 C235.72528889 229.55985446 238.95402356 229.60650825 242.18359375 229.65805054 C243.18585495 229.65927917 244.18811615 229.66050781 245.2207489 229.66177368 C249.64474359 229.75451801 252.24807601 229.83701389 256.08691406 232.18051147 C258.10451777 234.43672242 258.61458417 235.28700824 258.515625 238.26742554 C258.51691406 238.92742554 258.51820313 239.58742554 258.51953125 240.26742554 C257.69447466 243.18072881 256.28481206 244.3643996 253.953125 246.26742554 C251.22494483 246.76421952 251.22494483 246.76421952 248.02608871 246.75961685 C246.80590286 246.76758105 245.58571701 246.77554524 244.32855582 246.78375077 C242.97259455 246.77233863 241.61663635 246.76055625 240.26068115 246.7484436 C238.82179532 246.75018746 237.38291072 246.75368897 235.94403291 246.75880027 C231.9851605 246.76776062 228.02671951 246.75172238 224.06790209 246.73168802 C219.80072052 246.71444251 215.53356403 246.72025766 211.26635742 246.72329712 C203.87152067 246.72539632 196.47682491 246.71282757 189.08202362 246.69034576 C178.39035624 246.65786189 167.69875716 246.64742245 157.00704578 246.6423938 C139.66123404 246.63363547 122.31549747 246.6070053 104.96972656 246.56918335 C88.11816789 246.53247718 71.26662963 246.50415859 54.41503906 246.4871521 C53.3766155 246.48610121 52.33819193 246.48505031 51.26830098 246.48396757 C46.05892685 246.47874749 40.84955258 246.47369264 35.6401782 246.46871996 C-7.5888916 246.42724118 -50.81787943 246.35677811 -94.046875 246.26742554 C-93.716875 247.25742554 -93.386875 248.24742554 -93.046875 249.26742554 C-23.47424747 265.06349108 43.1020426 272.56682704 114.41665113 271.83879375 C122.66329826 271.76337596 130.90513903 271.79070416 139.15161133 271.87484741 C208.87029872 272.56921247 273.99587473 264.87389693 341.953125 249.26742554 C342.283125 248.27742554 342.613125 247.28742554 342.953125 246.26742554 C342.11009827 246.27630798 341.26707153 246.28519043 340.39849854 246.29434204 C332.45308307 246.37449604 324.50780342 246.43539394 316.56207657 246.47467422 C312.4770813 246.49554765 308.39242015 246.52386017 304.30761719 246.56918335 C300.36538155 246.61265084 296.42346723 246.63656449 292.48101044 246.64693451 C290.97707816 246.65432435 289.47316343 246.66875521 287.96936798 246.69034576 C285.86233041 246.71939366 283.75661971 246.72338125 281.64941406 246.7215271 C280.45028381 246.73040955 279.25115356 246.73929199 278.01568604 246.7484436 C274.33624283 246.17053556 273.1965723 245.17971422 270.953125 242.26742554 C269.87079819 239.25237228 269.84542813 237.68842238 270.640625 234.57992554 C272.22720751 231.78451827 272.96064832 231.36146986 275.953125 230.26742554 C278.47714782 230.07762435 280.8892806 229.99403191 283.41210938 230.00863647 C284.52988518 230.00337952 284.52988518 230.00337952 285.67024231 229.99801636 C288.12921512 229.98922635 290.58789935 229.99503848 293.046875 230.00180054 C294.75793513 230.0004531 296.46899489 229.99851191 298.18005371 229.9960022 C301.76444141 229.99305464 305.34872937 229.99733674 308.93310547 230.00668335 C313.52654714 230.01807768 318.11975508 230.01151624 322.71318817 229.99953842 C326.24592854 229.99230989 329.77861355 229.99461232 333.31135559 229.99979401 C335.0050306 230.00112775 336.69871063 229.99949241 338.39237976 229.9948349 C340.75976877 229.98975335 343.12677975 229.99750265 345.49414062 230.00863647 C346.19348221 230.00458801 346.89282379 230.00053955 347.61335754 229.99636841 C351.20977385 230.02768755 353.94437634 230.19983717 356.953125 232.26742554 C359.85111211 236.90420491 359.28379262 242.48428219 359.265625 247.76742554 C359.28173828 248.70457397 359.29785156 249.64172241 359.31445312 250.60726929 C359.31509766 251.51605835 359.31574219 252.42484741 359.31640625 253.36117554 C359.32087769 254.59384155 359.32087769 254.59384155 359.32543945 255.85140991 C358.82878085 259.07431715 357.99242737 260.69589083 355.953125 263.26742554 C353.25043877 264.21668571 350.94405545 264.81659231 348.15625 265.30941772 C347.36301331 265.46715038 346.56977661 265.62488304 345.75250244 265.78739548 C344.04083889 266.1249613 342.327244 266.45284912 340.61206055 266.77204895 C337.97731214 267.26291932 335.3489305 267.7795899 332.72070312 268.3041687 C327.05351398 269.42959461 321.37879459 270.51384437 315.703125 271.59555054 C313.62610485 271.99321802 311.54911983 272.39106901 309.47216797 272.78909302 C305.16308053 273.61428444 300.85365132 274.43765844 296.54394531 275.25961304 C291.01302617 276.3145797 285.4829 277.37363899 279.95300293 278.43394852 C275.68463702 279.25201535 271.41592375 280.06825702 267.14709473 280.8839035 C265.10557527 281.27414891 263.06415219 281.66489887 261.02282715 282.05615997 C258.19004088 282.5987787 255.35681006 283.13901061 252.5234375 283.67855835 C251.67993744 283.84058746 250.83643738 284.00261658 249.96737671 284.16955566 C244.18187192 285.26742554 244.18187192 285.26742554 241.953125 285.26742554 C241.97407227 286.00380249 241.99501953 286.74017944 242.01660156 287.49887085 C242.09979644 290.83824996 242.15179657 294.17741103 242.203125 297.51742554 C242.23664063 298.67629272 242.27015625 299.83515991 242.3046875 301.02914429 C242.31757813 302.14418335 242.33046875 303.25922241 242.34375 304.40805054 C242.36469727 305.43446655 242.38564453 306.46088257 242.40722656 307.5184021 C241.80384384 311.17113837 240.9408347 312.07845932 237.953125 314.26742554 C234.93277414 314.86558212 231.9518711 314.80689436 228.88122559 314.77536011 C227.48988285 314.78472005 227.48988285 314.78472005 226.07043219 314.79426908 C222.95490117 314.81025432 219.84014653 314.79757303 216.72460938 314.78500366 C214.49408002 314.79042231 212.26355425 314.79754351 210.03303528 314.8062439 C203.96905846 314.82451063 197.90535323 314.81739576 191.84137154 314.80472755 C185.5024351 314.79461729 179.16352229 314.80398774 172.82458496 314.81027222 C161.49602939 314.81802114 150.16761203 314.80557188 138.83908409 314.78523487 C128.56600122 314.76736361 118.29309914 314.77046765 108.02001953 314.78890991 C96.09241118 314.81031234 84.16491269 314.81828602 72.23727846 314.80646086 C65.92256102 314.80021702 59.60796816 314.79941481 53.29325867 314.81260681 C47.35721597 314.82414098 41.4215155 314.81618382 35.48550987 314.79302979 C33.30378984 314.78772971 31.12204113 314.78927853 28.94033241 314.79808044 C25.96817105 314.80896803 22.99711484 314.79535417 20.02502441 314.77536011 C18.72172629 314.78874444 18.72172629 314.78874444 17.3920989 314.80239916 C11.57937169 314.72624951 11.57937169 314.72624951 8.41451263 312.40749359 C6.4895779 309.58860336 6.49320577 307.8034677 6.5625 304.40805054 C6.57249023 303.40290405 6.58248047 302.39775757 6.59277344 301.3621521 C6.62918945 300.09339233 6.66560547 298.82463257 6.703125 297.51742554 C6.74909798 295.33223271 6.79360059 293.14700863 6.83691406 290.96176147 C6.87565104 289.0636495 6.91438802 287.16553752 6.953125 285.26742554 C6.31864944 285.15589142 5.68417389 285.0443573 5.0304718 284.92944336 C-15.51516131 281.30884092 -36.02677567 277.51452942 -56.52709961 273.64633179 C-60.11873505 272.96906187 -63.71121117 272.29652289 -67.30444336 271.6277771 C-71.72121035 270.80572056 -76.13642148 269.97575384 -80.55063438 269.14009476 C-82.21060448 268.82718464 -83.87109157 268.51700315 -85.53211403 268.20972824 C-87.83777686 267.78261743 -90.14129311 267.34532697 -92.44458008 266.90560913 C-93.11413223 266.78398911 -93.78368439 266.66236908 -94.473526 266.5370636 C-99.74030151 265.51415843 -105.21805946 264.23806758 -108.9609375 260.20492554 C-110.55878013 255.88270375 -110.48149461 251.83826225 -110.421875 247.26742554 C-110.43347656 246.37797241 -110.44507812 245.48851929 -110.45703125 244.57211304 C-110.43515124 239.68557727 -110.30234349 236.18010128 -107.046875 232.26742554 C-103.84281038 230.13138245 -103.05086753 230.02533646 -99.37890625 230.07211304 C-98.48623047 230.07855835 -97.59355469 230.08500366 -96.67382812 230.09164429 C-95.28067383 230.11678101 -95.28067383 230.11678101 -93.859375 230.14242554 C-92.91900391 230.15144897 -91.97863281 230.16047241 -91.00976562 230.16976929 C-88.68854532 230.19333498 -86.36783856 230.22623437 -84.046875 230.26742554 C-84.7584375 228.68961304 -84.7584375 228.68961304 -85.484375 227.07992554 C-91.09922182 213.82049038 -89.02773098 196.39182826 -84.046875 183.26742554 C-79.10750989 172.23969862 -79.10750989 172.23969862 -74.046875 169.26742554 C-70.61867574 169.38771323 -68.09961669 169.60068914 -65.171875 171.45492554 C-63.5178941 174.11967254 -63.25552256 176.1267307 -63.046875 179.26742554 C-64.04964265 181.88496516 -65.09514383 184.22529878 -66.359375 186.70492554 C-71.42400085 197.49510715 -73.34349368 207.68534256 -70.359375 219.48617554 C-68.47646652 223.47614828 -66.72008734 226.69281833 -63.046875 229.26742554 C-58.93769119 230.27217659 -55.00746051 230.20114686 -50.796875 230.07992554 C-49.71535156 230.09861694 -48.63382813 230.11730835 -47.51953125 230.13656616 C-37.43954804 230.02105369 -31.03851017 226.21204713 -23.796875 219.45492554 C-19.97003566 215.40433954 -16.8848292 211.05382591 -14.046875 206.26742554 C-13.66660156 205.63191772 -13.28632812 204.99640991 -12.89453125 204.34164429 C-6.27865184 192.28326786 -5.616982 179.3438926 -9.046875 166.26742554 C-13.00516654 169.82365302 -15.65123025 173.99378187 -18.51171875 178.42758179 C-19.56933639 180.04172712 -20.62728932 181.6556528 -21.68554688 183.26937866 C-23.33980398 185.80351266 -24.99069795 188.33969091 -26.63549805 190.87997437 C-28.23083372 193.33951963 -29.83907867 195.79021147 -31.44921875 198.24008179 C-31.93583481 198.99950577 -32.42245087 199.75892975 -32.92381287 200.54136658 C-35.50916792 204.45700154 -37.577198 207.37989774 -42.046875 209.26742554 C-45.15251995 209.14319974 -47.22011336 208.7359238 -49.921875 207.20492554 C-51.78864482 203.98993307 -51.66431497 200.82473449 -51.046875 197.26742554 C-49.44347544 193.76494034 -47.32513523 190.68191829 -45.140625 187.51742554 C-44.54133179 186.61870728 -43.94203857 185.71998901 -43.32458496 184.79403687 C-41.41569679 181.93996141 -39.48190064 179.10382778 -37.546875 176.26742554 C-36.24441013 174.32975409 -34.94360941 172.39096292 -33.64453125 170.45101929 C-30.46447365 165.71001563 -27.26382009 160.98346628 -24.046875 156.26742554 C-30.86204538 157.20431948 -36.81533423 158.1760033 -42.921875 161.39242554 C-47.21494201 163.64117493 -50.16475765 164.81291351 -55.046875 164.26742554 C-58.36961904 161.81148429 -59.82305508 160.34176114 -60.671875 156.26742554 C-59.84153771 152.28180652 -58.30091448 150.50669179 -55.046875 148.26742554 C-42.95876714 141.27817522 -32.76957938 139.59228104 -19.046875 140.26742554 C-18.386875 140.59742554 -17.726875 140.92742554 -17.046875 141.26742554 C-17.25183594 140.44242554 -17.45679687 139.61742554 -17.66796875 138.76742554 C-17.93738281 137.61242554 -18.20679687 136.45742554 -18.484375 135.26742554 C-18.75121094 134.15367554 -19.01804687 133.03992554 -19.29296875 131.89242554 C-21.90941623 118.00702885 -21.2234262 103.30827 -21.25 89.24008179 C-21.25424107 87.70680142 -21.25424107 87.70680142 -21.25856781 86.1425457 C-21.27342673 80.75049467 -21.28274432 75.35846957 -21.28710938 69.96640015 C-21.29262666 64.42316049 -21.3167608 58.88016239 -21.34508133 53.33699894 C-21.36373456 49.04319049 -21.36891438 44.74944056 -21.37044525 40.45559502 C-21.3734577 38.41157118 -21.38143824 36.36754802 -21.39463043 34.32356453 C-21.4117749 31.46750495 -21.40979215 28.61204173 -21.40332031 25.75595093 C-21.4125351 24.92512497 -21.42174988 24.09429901 -21.4312439 23.23829651 C-21.38868646 17.21214809 -20.76383538 10.40599777 -16.66569901 5.67192173 C-11.22367148 0.97933831 -7.04415924 -0.02856365 0 0 Z M269.953125 38.26742554 C269.953125 44.20742554 269.953125 50.14742554 269.953125 56.26742554 C271.933125 55.93742554 273.913125 55.60742554 275.953125 55.26742554 C290.25084159 54.30186546 302.64317517 57.2357909 314.171875 65.94320679 C323.34917806 74.18513088 328.18872127 86.43209751 329.12890625 98.52914429 C329.54646299 111.1217764 325.24199254 122.45998387 317.203125 132.14242554 C308.26489725 141.55826851 296.47666049 146.09461577 283.640625 146.45492554 C279.35853068 146.41826377 275.37756129 145.67019337 271.21484375 144.70492554 C268.68253225 144.14081457 268.68253225 144.14081457 264.953125 144.26742554 C264.27947839 146.34851238 263.61445702 148.43239264 262.953125 150.51742554 C262.581875 151.67758179 262.210625 152.83773804 261.828125 154.03305054 C260.77902905 157.35251833 260.77902905 157.35251833 260.953125 161.26742554 C280.02626999 167.45646646 297.66406913 165.56215043 315.453125 156.64242554 C330.79905288 147.9171694 341.41967454 133.15698817 346.265625 116.26742554 C350.06075987 97.5656269 346.48767921 79.16822447 335.953125 63.26742554 C325.4106316 49.55690407 311.25868899 39.70396965 293.89501953 36.93978882 C285.64108305 35.90636287 278.01337274 36.12642223 269.953125 38.26742554 Z M-5.046875 46.26742554 C-6.77499995 89.5430743 -6.77499995 89.5430743 -2.359375 134.64242554 C-2.18857422 135.43697144 -2.01777344 136.23151733 -1.84179688 137.05014038 C0.70821431 148.28137383 5.11334317 158.84328006 9.953125 169.26742554 C11.05527344 169.10887085 12.15742188 168.95031616 13.29296875 168.78695679 C32.21079146 166.44665044 51.16491196 167.53638912 66.953125 179.26742554 C74.59909938 186.02199732 78.56282325 193.67344528 79.828125 203.76742554 C80.33914319 212.40606634 77.86657683 220.22629848 74.953125 228.26742554 C79.3938129 230.47419881 83.57895647 230.58212541 88.43676758 230.6055603 C89.27986481 230.61709641 90.12296204 230.62863251 90.99160767 230.64051819 C93.77697649 230.67477795 96.56212309 230.69332651 99.34765625 230.70883179 C100.30499853 230.71573469 101.26234081 230.7226376 102.24869347 230.72974968 C107.32457004 230.76557984 112.40033576 230.78911434 117.47631836 230.80282593 C122.6800277 230.81928953 127.88235777 230.87759016 133.08560658 230.94596958 C137.11896139 230.99111325 141.15199746 231.00434729 145.18558311 231.00944328 C147.1010856 231.0172633 149.01658192 231.03667912 150.93183327 231.06866646 C163.92370377 231.27117152 173.49406695 229.48124753 184.953125 223.26742554 C186.23588318 222.59234451 186.23588318 222.59234451 187.54455566 221.90362549 C189.42522408 220.88743502 191.21975044 219.80104611 193.015625 218.64242554 C193.66354004 218.22984497 194.31145508 217.8172644 194.97900391 217.3921814 C224.56458026 197.97284219 244.47450212 167.76216614 251.765625 133.32992554 C257.17988603 105.2742093 253.953125 72.62773682 253.953125 46.26742554 C168.483125 46.26742554 83.013125 46.26742554 -5.046875 46.26742554 Z M269.953125 73.26742554 C269.623125 91.08742554 269.293125 108.90742554 268.953125 127.26742554 C277.58866632 131.5851962 284.19739919 132.73334892 293.515625 129.70492554 C302.05366956 126.30164903 307.91902147 120.48262421 311.953125 112.26742554 C315.21570397 103.72257585 314.6267327 96.31480976 311.27734375 87.91195679 C307.10682825 79.5832282 300.36875132 74.73977668 292.078125 70.95492554 C283.63190397 69.09675691 278.35936905 70.46534419 269.953125 73.26742554 Z M8.953125 187.26742554 C8.51002051 189.36618395 8.09940205 191.47182379 7.703125 193.57992554 C4.59149576 208.21940025 -2.20738584 218.49404532 -11.046875 230.26742554 C-3.06679698 230.38348696 4.91292603 230.47222421 12.89364052 230.5264864 C16.59980798 230.55253525 20.30539629 230.58784448 24.01123047 230.6446228 C27.59040356 230.69911476 31.1690211 230.72888151 34.74857712 230.74181175 C36.11133949 230.75102119 37.47407284 230.76900582 38.83659744 230.79607582 C47.30358287 231.25928229 47.30358287 231.25928229 54.72094727 227.88168335 C56.71859906 225.54209509 58.59813759 223.2893063 60.265625 220.70492554 C60.75675781 219.96113647 61.24789062 219.21734741 61.75390625 218.45101929 C62.90725051 216.35095597 63.42463891 214.58444696 63.953125 212.26742554 C53.74299121 212.99452634 43.88011666 215.22486036 33.88549805 217.33163452 C31.57197179 217.8173723 29.25682073 218.29468925 26.94140625 218.77133179 C26.24332352 218.92131119 25.54524078 219.07129059 24.82600403 219.22581482 C20.46921991 220.11891533 16.39642125 220.57194733 11.953125 220.26742554 C8.953125 218.26742554 8.953125 218.26742554 8.140625 214.89242554 C7.95375851 211.27967335 7.98857213 210.15434834 9.953125 207.26742554 C11.73950195 206.44955444 11.73950195 206.44955444 13.94140625 205.99398804 C14.77978027 205.81182739 15.6181543 205.62966675 16.48193359 205.44198608 C17.85986084 205.16995361 17.85986084 205.16995361 19.265625 204.89242554 C20.6899585 204.59042236 20.6899585 204.59042236 22.14306641 204.28231812 C25.40985279 203.59414783 28.68135065 202.93145562 31.953125 202.26742554 C34.59016235 201.7181119 37.2268837 201.1674422 39.86328125 200.61508179 C46.8892742 199.14634031 53.91985487 197.70095357 60.953125 196.26742554 C57.7621803 192.04407808 54.7670591 189.75044936 50.015625 187.51742554 C49.40783203 187.21449585 48.80003906 186.91156616 48.17382812 186.59945679 C41.597724 183.40717323 35.8767195 183.06233067 28.703125 183.01742554 C27.89488281 182.99680054 27.08664063 182.97617554 26.25390625 182.95492554 C20.83391303 182.92023758 13.04998342 183.17056712 8.953125 187.26742554 Z M22.953125 286.26742554 C22.953125 290.55742554 22.953125 294.84742554 22.953125 299.26742554 C89.943125 299.26742554 156.933125 299.26742554 225.953125 299.26742554 C225.953125 294.97742554 225.953125 290.68742554 225.953125 286.26742554 C158.963125 286.26742554 91.973125 286.26742554 22.953125 286.26742554 Z " fill="#000000" transform="translate(129.046875,197.73257446289063)"/>
<path d="M0 0 C8.65123623 2.17859598 15.77010867 11.59906876 20.12890625 18.84375 C23.91788433 25.80529895 26.47250555 32.58236728 27.140625 40.5390625 C27.22183594 41.31121094 27.30304688 42.08335938 27.38671875 42.87890625 C28.17728454 57.27678625 22.42250392 70.82920221 13.140625 81.5390625 C14.65041402 84.76791823 16.51028293 87.59672654 18.515625 90.5390625 C26.40521604 102.81723856 28.67776921 116.14824018 26.015625 130.3515625 C22.89809341 143.71241217 16.17320622 154.59088527 5.0546875 162.82421875 C1.43109919 164.95659846 -0.71756357 165.07596398 -4.859375 164.5390625 C-7.234375 163.4765625 -7.234375 163.4765625 -8.859375 161.5390625 C-9.984375 158.2890625 -9.984375 158.2890625 -9.859375 154.5390625 C-7.56954366 150.62553257 -4.31269111 147.89986512 -0.796875 145.1015625 C6.86587152 138.41703894 9.46256999 129.54469257 10.578125 119.6640625 C10.08886574 109.73617658 6.19171401 100.50201289 -0.859375 93.5390625 C-2.10567766 92.62946257 -3.37575049 91.75114291 -4.671875 90.9140625 C-7.859375 88.5390625 -7.859375 88.5390625 -9.421875 85.0390625 C-9.90733531 81.15538 -9.95627412 79.81022513 -7.859375 76.5390625 C-5.67273599 74.33669227 -3.42069069 72.29694662 -0.859375 70.5390625 C-0.199375 70.5390625 0.460625 70.5390625 1.140625 70.5390625 C1.40746094 70.00152344 1.67429687 69.46398437 1.94921875 68.91015625 C2.82509393 67.16702106 3.71521827 65.4310272 4.61328125 63.69921875 C5.13792969 62.67699219 5.66257812 61.65476563 6.203125 60.6015625 C6.73035156 59.58191406 7.25757813 58.56226563 7.80078125 57.51171875 C11.82124358 48.59168425 10.49397237 39.45157129 7.140625 30.5390625 C4.32140461 24.85409994 0.64972166 20.99175567 -4.171875 16.9140625 C-7.43040387 14.09295304 -8.72269908 12.91181501 -10.234375 8.7890625 C-9.50208859 2.4425803 -6.60630491 -0.46488812 0 0 Z " fill="#000000" transform="translate(278.859375,-0.5390625)"/>
<path d="M0 0 C8.64013684 1.82772126 15.22785744 8.7516568 20.25 15.6875 C27.96335297 28.82243367 31.08688944 42.63262591 28.03125 57.75 C24.36502729 71.53499738 16.61697095 83.19052905 4.25 90.6875 C0.4375 91.5 0.4375 91.5 -2.75 90.6875 C-5.75 88.6875 -5.75 88.6875 -7.75 85.6875 C-8.30726795 80.83130786 -8.30726795 80.83130786 -6.75 77.6875 C-4.40528539 75.52147182 -1.91523518 73.7056856 0.66796875 71.83203125 C7.10800723 66.48319445 11.16917196 57.77162627 12 49.5 C12.79152953 38.57982403 9.51402917 30.02660704 2.875 21.4375 C0.69331743 19.15192778 -0.88823686 17.92219892 -3.5 16.3125 C-6.31191037 14.40089427 -7.3453042 13.04911113 -8 9.6875 C-8.13465188 6.3019669 -7.73068934 5.65941177 -5.6875 2.6875 C-2.75 0.6875 -2.75 0.6875 0 0 Z " fill="#000000" transform="translate(219.75,73.3125)"/>
<path d="M0 0 C10.76767362 5.41486757 18.65054416 15.90773695 23 27 C27.26824776 40.70332176 27.07660577 55.36033533 20.5390625 68.33984375 C15.38507808 77.24812646 9.41118005 85.29440997 0 90 C-4.05263598 90.54035146 -5.53730231 90.34199395 -8.875 87.875 C-11 85 -11 85 -11.625 82 C-10.57270479 76.94898301 -7.05806459 74.78792044 -3.0625 71.8125 C3.50974776 66.44601346 7.53058011 57.63490373 8.37109375 49.3359375 C8.56147227 37.98041874 6.79365875 28.8127191 -1 20 C-2.52325121 18.72251705 -4.08602871 17.4904417 -5.6875 16.3125 C-9.89753567 13.20492866 -9.89753567 13.20492866 -11 11 C-11.54035146 6.94736402 -11.34199395 5.46269769 -8.875 2.125 C-5.43280258 -0.41923288 -4.18660382 -0.45078531 0 0 Z " fill="#000000" transform="translate(333,74)"/>
</svg>
