<?xml version="1.0" encoding="UTF-8"?>
<svg version="1.1" xmlns="http://www.w3.org/2000/svg" width="512" height="512">
<path d="M0 0 C0.68064514 -0.00671722 1.36129028 -0.01343445 2.06256104 -0.02035522 C4.30024651 -0.03926045 6.53763036 -0.04325677 8.77539062 -0.04541016 C10.34753538 -0.05184748 11.91967896 -0.05857652 13.49182129 -0.06558228 C16.7868934 -0.07753946 20.08186086 -0.08126514 23.37695312 -0.08007812 C27.56150897 -0.07987599 31.74537757 -0.10707455 35.92977142 -0.14162254 C39.17983969 -0.16407642 42.42974805 -0.16790994 45.67988586 -0.16685867 C47.22018277 -0.16919094 48.76048575 -0.17787745 50.30070496 -0.19352341 C69.54185685 -0.37054888 86.56602349 5.03358673 100.93164062 18.29052734 C115.77546087 32.9659412 122.07493364 49.69849481 122.24414062 70.35302734 C122.27314453 71.53703125 122.30214844 72.72103516 122.33203125 73.94091797 C122.34041016 75.07851562 122.34878906 76.21611328 122.35742188 77.38818359 C122.37929565 78.94291382 122.37929565 78.94291382 122.40161133 80.52905273 C121.80809136 84.01648359 120.72129362 85.17506379 117.93164062 87.29052734 C114.43164062 87.79052734 114.43164062 87.79052734 110.93164062 87.29052734 C108.3592231 85.27462025 107.10542263 84.03708064 106.35742188 80.82373047 C106.32003906 79.91558594 106.28265625 79.00744141 106.24414062 78.07177734 C106.1595459 76.55801514 106.1595459 76.55801514 106.07324219 75.01367188 C106.02651367 73.95003418 105.97978516 72.88639648 105.93164062 71.79052734 C104.86984988 55.30830564 100.4519141 40.82740769 87.93164062 29.29052734 C70.32533204 16.04516596 51.75543835 15.9514425 30.58032227 16.02978516 C27.10936227 16.04055769 23.63891358 16.02981379 20.16796875 16.01708984 C17.93684783 16.01841068 15.70572722 16.0209715 13.47460938 16.02490234 C12.44941696 16.02085388 11.42422455 16.01680542 10.3679657 16.01263428 C2.94936412 16.06059335 -5.21596958 16.21945921 -11.38085938 20.85302734 C-11.99574219 21.28744141 -12.610625 21.72185547 -13.24414062 22.16943359 C-20.17830837 30.23207403 -19.65945733 39.78875608 -19.59960938 49.82177734 C-19.60230935 51.42403396 -19.60619596 53.02628898 -19.61120605 54.62854004 C-19.61707741 57.9738741 -19.60861524 61.31877868 -19.58984375 64.6640625 C-19.56705515 68.93092291 -19.58019105 73.1967766 -19.60413361 77.46360016 C-19.61865608 80.76840667 -19.61395628 84.07297839 -19.60362244 87.37779236 C-19.60097291 88.95011009 -19.60416177 90.52244983 -19.61354065 92.09474182 C-19.65985178 102.03817522 -19.55329785 110.60172803 -12.31835938 118.16552734 C-5.01268135 122.94231682 1.23067664 123.73536739 9.75390625 123.72290039 C11.335737 123.73818787 11.335737 123.73818787 12.94952393 123.75378418 C16.41236754 123.78381985 19.87493407 123.79316593 23.33789062 123.80224609 C25.74785271 123.81909972 28.15780604 123.83725088 30.56774902 123.85664368 C36.89368962 123.90407523 43.21959472 123.93392907 49.5456543 123.96008301 C56.00772104 123.98992292 62.46966556 124.03644153 68.93164062 124.08154297 C81.59824074 124.16749833 94.26487055 124.23544515 106.93164062 124.29052734 C106.88523437 123.18193359 106.83882813 122.07333984 106.79101562 120.93115234 C106.75348961 119.46763766 106.71709033 118.00409379 106.68164062 116.54052734 C106.648125 115.81091797 106.61460937 115.08130859 106.58007812 114.32958984 C106.5155593 110.78105459 106.62055939 108.72063097 108.72851562 105.80615234 C111.94931838 103.59042279 114.11631353 103.74548062 117.93164062 104.29052734 C120.63143585 106.36326753 121.79536842 107.52466469 122.39819336 110.91259766 C122.38187866 112.37584473 122.38187866 112.37584473 122.36523438 113.86865234 C122.37490234 114.94759766 122.38457031 116.02654297 122.39453125 117.13818359 C122.37772052 119.39082137 122.35694318 121.64343334 122.33203125 123.89599609 C122.39523379 130.14932979 122.74587854 134.38939651 126.66235352 139.40283203 C130.95390139 145.78526099 130.29868479 153.18137796 130.30664062 160.54052734 C130.33113281 161.71744141 130.355625 162.89435547 130.38085938 164.10693359 C130.41166878 173.33948601 129.07122415 181.04084423 122.80664062 188.10302734 C116.10944477 194.22163177 108.17697806 197.46011469 99.18164062 197.35302734 C98.19679688 197.34400391 97.21195312 197.33498047 96.19726562 197.32568359 C95.44960938 197.31408203 94.70195312 197.30248047 93.93164062 197.29052734 C93.96644531 198.13873047 94.00125 198.98693359 94.03710938 199.86083984 C94.56566673 222.76499208 86.22168276 243.28208558 70.48242188 259.79443359 C67.93164063 262.29052734 67.93164063 262.29052734 65.81030273 263.51806641 C63.62549547 265.22599808 63.62549547 265.22599808 63.38574219 268.38500977 C63.35432129 270.246698 63.35432129 270.246698 63.32226562 272.14599609 C63.30572937 272.8076326 63.28919312 273.4692691 63.27215576 274.1509552 C63.22364774 276.26007335 63.20230136 278.36847058 63.18164062 280.47802734 C63.15348286 281.9097043 63.12355568 283.34134762 63.09179688 284.77294922 C63.0178917 288.27865127 62.96833274 291.78421609 62.93164062 295.29052734 C63.63419983 295.45619705 64.33675903 295.62186676 65.06060791 295.79255676 C73.16976358 297.75609836 81.0961575 300.13596835 89.04101562 302.67724609 C90.37875819 303.10247215 91.71658994 303.52741774 93.05450439 303.95210266 C95.84875202 304.83990078 98.64221105 305.73012193 101.43505859 306.62231445 C104.93630512 307.74074726 108.43900184 308.85454856 111.94223022 309.96675587 C120.61233399 312.71981989 129.27500742 315.49540095 137.93164062 318.29052734 C139.13385254 318.6784848 140.33606445 319.06644226 141.57470703 319.46615601 C144.8993811 320.54316105 148.22080776 321.62952936 151.54101562 322.72021484 C152.50706726 323.03323044 153.4731189 323.34624603 154.46844482 323.66874695 C168.08716284 328.18101803 177.65487823 335.5271261 184.30664062 348.47802734 C189.36121181 359.02485606 190.15876382 368.78294041 190.22680664 380.36132812 C190.23839373 381.73447926 190.25895052 383.10758305 190.28833008 384.48046875 C190.33103123 386.48193613 190.34457663 388.48395821 190.35742188 390.48583984 C190.37929565 392.26498779 190.37929565 392.26498779 190.40161133 394.08007812 C189.83636844 397.94134775 188.67997552 399.56738941 185.93164062 402.29052734 C182.24184642 403.5466275 180.66777233 403.63405547 177.11914062 401.97802734 C174.93164062 400.29052734 174.93164062 400.29052734 173.93164062 398.29052734 C173.8243697 396.19218991 173.77607929 394.09072639 173.75585938 391.98974609 C173.73201172 390.70132812 173.70816406 389.41291016 173.68359375 388.08544922 C173.63766541 385.38980903 173.60969752 382.695654 173.58984375 379.99951172 C173.33765526 368.14665283 171.7667255 355.94132007 162.93164062 347.29052734 C155.73353685 342.01965798 147.83625692 339.2523094 139.40429688 336.58349609 C138.09131994 336.15838938 136.77866987 335.73227201 135.46632385 335.30522156 C131.99795556 334.18028689 128.52470695 333.07125394 125.05002594 331.96599579 C122.25278621 331.07406779 119.45865304 330.1726283 116.66444969 329.27124214 C108.98582677 326.79503761 101.29598958 324.35589243 93.59936523 321.9362793 C90.73231139 321.0343736 87.86765248 320.12534148 85.00463867 319.21069336 C81.46547868 318.08006581 77.92290933 316.9608376 74.37751961 315.84990501 C73.04904078 315.4316147 71.72178757 315.00940924 70.39587212 314.58306313 C68.56679081 313.99584488 66.73258243 313.42466934 64.89819336 312.85424805 C63.86282944 312.52689163 62.82746552 312.19953522 61.76072693 311.86225891 C57.78129863 311.05805411 55.15276862 311.53013873 51.72192383 313.66650391 C50.98288818 314.24883789 50.24385254 314.83117187 49.48242188 315.43115234 C48.64267822 316.08398193 47.80293457 316.73681152 46.93774414 317.40942383 C46.04885498 318.11268799 45.15996582 318.81595215 44.24414062 319.54052734 C42.36511432 320.99648121 40.48488372 322.45088203 38.60351562 323.90380859 C37.65798828 324.63680176 36.71246094 325.36979492 35.73828125 326.125 C31.52577725 329.37525317 27.27810808 332.5726972 22.99414062 335.72802734 C22.26815674 336.2768457 21.54217285 336.82566406 20.79418945 337.39111328 C16.95278985 340.20275234 13.87330703 342.45503022 8.93164062 342.29052734 C3.21334542 339.67435736 -1.48810567 335.75977447 -6.38085938 331.85302734 C-7.96964043 330.61468354 -9.55951651 329.37774358 -11.15039062 328.14208984 C-13.61589239 326.22126345 -16.06870967 324.29024308 -18.49560547 322.32080078 C-20.83097867 320.42643205 -23.19569109 318.57533887 -25.56835938 316.72802734 C-26.27259033 316.13771729 -26.97682129 315.54740723 -27.70239258 314.93920898 C-31.54004324 311.9678667 -31.54004324 311.9678667 -36.19329834 311.57119751 C-37.32593109 311.95747818 -37.32593109 311.95747818 -38.48144531 312.3515625 C-39.8010022 312.79323006 -39.8010022 312.79323006 -41.1472168 313.24382019 C-42.11119385 313.58923355 -43.0751709 313.93464691 -44.06835938 314.29052734 C-45.61583862 314.83638237 -45.61583862 314.83638237 -47.19458008 315.39326477 C-50.7189365 316.65690314 -54.23048102 317.95173559 -57.74023438 319.25537109 C-59.03434461 319.73479537 -60.32847339 320.21416962 -61.62261963 320.6934967 C-64.31618041 321.69217664 -67.00871601 322.69356729 -69.70068359 323.6965332 C-73.13627334 324.97596254 -76.57552585 326.2452245 -80.01575851 327.5121069 C-82.68240848 328.49602799 -85.34641103 329.48696594 -88.00974274 330.47982979 C-89.88790569 331.1780642 -91.76872754 331.86913319 -93.64959717 332.56004333 C-108.94542263 338.29312774 -116.30584552 348.11659118 -125.80273438 360.91943359 C-129.12164214 365.38310368 -132.52165793 369.78036941 -135.94335938 374.16552734 C-136.52520996 374.91141113 -137.10706055 375.65729492 -137.70654297 376.42578125 C-138.89349333 377.94626564 -140.08083261 379.46644649 -141.26855469 380.98632812 C-143.08669184 383.31399748 -144.90229489 385.64361708 -146.71679688 387.97412109 C-147.31484131 388.74111328 -147.91288574 389.50810547 -148.52905273 390.29833984 C-149.71538827 391.82638016 -150.89597157 393.35890497 -152.07055664 394.89599609 C-154.64739412 398.25782312 -157.22667052 401.52459899 -160.13476562 404.60693359 C-166.69979395 411.77702321 -168.13897962 417.62388867 -167.87231445 427.13769531 C-167.7218741 433.11368563 -168.73237663 437.26821525 -172.06835938 442.29052734 C-172.72835937 442.95052734 -173.38835937 443.61052734 -174.06835938 444.29052734 C-174.32438703 446.93808603 -174.48853167 449.51243017 -174.56835938 452.16552734 C-174.83768461 461.02157487 -174.83768461 461.02157487 -177.06835938 464.29052734 C-179.76423741 466.38732137 -181.16130337 466.28563555 -184.63085938 466.10302734 C-189.12575698 465.040597 -189.12575698 465.040597 -191.06835938 462.29052734 C-191.47323797 458.25793657 -191.19941973 454.3533983 -191.06835938 450.29052734 C-198.65835938 450.29052734 -206.24835938 450.29052734 -214.06835938 450.29052734 C-214.017038 454.56046541 -213.95374347 458.82692516 -213.86083984 463.09570312 C-213.83279901 464.5444795 -213.81150126 465.99340407 -213.79736328 467.44238281 C-213.70891622 478.93333901 -213.70891622 478.93333901 -209.06835938 489.29052734 C-204.84824491 493.40243375 -200.80588647 495.35258106 -194.94335938 495.66552734 C-187.04905043 495.48071075 -179.9265666 492.50518354 -174.06835938 487.29052734 C-172.70880194 485.76879606 -171.39856072 484.20208825 -170.13085938 482.60302734 C-169.35613281 481.63751953 -168.58140625 480.67201172 -167.78320312 479.67724609 C-167.35507324 479.14147949 -166.92694336 478.60571289 -166.48583984 478.05371094 C-163.75025774 474.65095965 -160.96941449 471.28527048 -158.19335938 467.91552734 C-157.59168945 467.18398438 -156.99001953 466.45244141 -156.37011719 465.69873047 C-152.7457608 461.2995386 -149.08227102 456.93745153 -145.38085938 452.60302734 C-141.12229276 447.6138626 -137.03445798 442.50807753 -133.03442383 437.30932617 C-132.4092688 436.50144653 -132.4092688 436.50144653 -131.77148438 435.67724609 C-131.14077026 434.84217529 -131.14077026 434.84217529 -130.49731445 433.99023438 C-129.06835937 432.29052734 -129.06835937 432.29052734 -127.20776367 430.66503906 C-123.25181729 427.0127014 -121.69686179 424.19181186 -121.35848999 418.72746277 C-121.26949497 415.16150718 -121.30270318 411.60635435 -121.38085938 408.04052734 C-121.41244062 405.85250124 -121.4336332 403.66586209 -121.43144226 401.4776001 C-121.43163075 399.50331387 -121.46644753 397.52912039 -121.50317383 395.55517578 C-121.06835938 392.29052734 -121.06835938 392.29052734 -119.2644043 389.87744141 C-116.06190696 387.56324099 -113.91922491 387.7404037 -110.06835938 388.29052734 C-107.16118865 390.50915764 -106.22854295 391.80997663 -105.06835938 395.29052734 C-105.06835938 397.93052734 -105.06835938 400.57052734 -105.06835938 403.29052734 C-33.45835937 403.29052734 38.15164063 403.29052734 111.93164062 403.29052734 C111.93164062 399.99052734 111.93164062 396.69052734 111.93164062 393.29052734 C114.93164062 390.29052734 114.93164062 390.29052734 117.08789062 389.89208984 C117.86132812 389.89982422 118.63476562 389.90755859 119.43164062 389.91552734 C120.20507812 389.90779297 120.97851562 389.90005859 121.77539062 389.89208984 C124.46671838 390.38940041 125.31198092 391.10793713 126.93164062 393.29052734 C127.80634423 396.10237072 128.05558306 398.6323487 128.05189514 401.56793213 C128.05395714 402.83830322 128.05395714 402.83830322 128.05606079 404.13433838 C128.05246552 405.05503113 128.04887024 405.97572388 128.04516602 406.92431641 C128.04531204 407.90025757 128.04545807 408.87619873 128.04560852 409.88171387 C128.04491203 413.10654933 128.03713188 416.33132698 128.02929688 419.55615234 C128.02743176 421.7924598 128.0260083 424.02876767 128.02500916 426.26507568 C128.02119133 432.15052417 128.01136728 438.03594798 128.00030518 443.92138672 C127.98827662 450.98322032 127.98368532 458.04506217 127.97785187 465.10690308 C127.96815517 475.834795 127.94899344 486.56263276 127.93164062 497.29052734 C143.11164063 497.29052734 158.29164063 497.29052734 173.93164062 497.29052734 C173.89683594 492.06724609 173.86203125 486.84396484 173.82617188 481.46240234 C173.81084367 478.15379742 173.79640187 474.84523626 173.78515625 471.53662109 C173.76722113 466.28473827 173.7460014 461.03301232 173.70532227 455.78125 C173.67273172 451.54725678 173.65478826 447.31343178 173.6470089 443.07932281 C173.64146482 441.46377158 173.6306386 439.84822958 173.61445045 438.23274994 C173.59267977 435.97023099 173.58967348 433.70840758 173.59106445 431.44580078 C173.5810717 429.51386871 173.5810717 429.51386871 173.57087708 427.54290771 C173.95501759 424.07977774 174.45687502 422.69513835 176.93164062 420.29052734 C180.53214141 419.116451 182.21092775 418.96293058 185.68164062 420.54052734 C187.93164063 422.29052734 187.93164063 422.29052734 189.93164062 425.29052734 C190.13094894 427.89157961 190.21502289 430.38577856 190.20629883 432.98730469 C190.21396523 434.16097343 190.21396523 434.16097343 190.2217865 435.35835266 C190.23569898 437.94780097 190.23472431 440.53698357 190.23242188 443.12646484 C190.23630831 444.92624002 190.24064287 446.72601428 190.2454071 448.52578735 C190.25287317 452.30026216 190.25257555 456.07464344 190.24731445 459.84912109 C190.24152371 464.68357682 190.25843931 469.51764894 190.28165913 474.35204124 C190.29640036 478.07012161 190.29726756 481.78810973 190.2941494 485.50621414 C190.29466256 487.28838485 190.29989936 489.07056072 190.30996132 490.85270309 C190.32231406 493.34704139 190.31554099 495.84063434 190.30395508 498.33496094 C190.31159882 499.06968124 190.31924255 499.80440155 190.32711792 500.56138611 C190.27761147 505.38959738 189.40612206 508.81604591 185.93164062 512.29052734 C184.31337005 512.39122048 182.69068926 512.42160131 181.06929207 512.42474842 C180.01019886 512.42920626 178.95110565 512.43366411 177.85991871 512.43825704 C176.09308509 512.43798049 176.09308509 512.43798049 174.29055786 512.43769836 C172.43035139 512.4432134 172.43035139 512.4432134 170.532565 512.44883984 C167.07452444 512.45798888 163.61653143 512.46258121 160.15848327 512.46522915 C156.43515642 512.46912372 152.71184343 512.47870258 148.98852539 512.48744202 C139.98922496 512.50722992 130.98992336 512.51727533 121.99060661 512.52616981 C117.75715327 512.53054868 113.5237012 512.5359165 109.29024887 512.54115868 C95.22513908 512.55817287 81.16003008 512.5726685 67.09491158 512.57990742 C63.4426689 512.58181744 59.79042624 512.58373776 56.13818359 512.58569336 C55.23038914 512.5861771 54.32259468 512.58666084 53.3872913 512.58715924 C38.67152849 512.59546497 23.95584682 512.62081017 9.24011947 512.65327404 C-5.85350396 512.68630129 -20.94708609 512.70435222 -36.04074585 512.70755166 C-44.52127303 512.70972073 -53.00168186 512.71852717 -61.48217392 512.74401283 C-68.7024837 512.76566072 -75.92264642 512.77379956 -83.14298497 512.76404605 C-86.82946363 512.75948412 -90.51563847 512.76149634 -94.20207596 512.7808075 C-98.19261522 512.80153189 -102.18273005 512.7915093 -106.17330933 512.77827454 C-107.93345078 512.79472841 -107.93345078 512.79472841 -109.72915065 512.81151468 C-110.79345935 512.80293378 -111.85776806 512.79435289 -112.95432854 512.78551197 C-113.87612715 512.78648878 -114.79792576 512.78746559 -115.74765766 512.788472 C-118.06835938 512.29052734 -118.06835938 512.29052734 -119.86306584 510.42490071 C-121.41189927 507.68217562 -121.46595789 505.74762191 -121.50073242 502.60400391 C-121.52052658 501.46312317 -121.54032074 500.32224243 -121.56071472 499.14678955 C-121.56710464 497.92062927 -121.57349457 496.69446899 -121.58007812 495.43115234 C-121.59802933 494.17163757 -121.61598053 492.9121228 -121.63447571 491.61444092 C-121.67946537 488.2738385 -121.7117646 484.93360343 -121.73791504 481.59283447 C-121.76774873 478.18073236 -121.81426929 474.76886195 -121.859375 471.35693359 C-121.94440958 464.66823845 -122.012718 457.97952807 -122.06835938 451.29052734 C-123.35298371 452.73113917 -124.63695705 454.17233153 -125.9206543 455.61376953 C-126.63573654 456.41627136 -127.35081879 457.21877319 -128.08757019 458.04559326 C-130.24921821 460.49550432 -132.33239608 462.99534249 -134.38085938 465.54052734 C-137.74690884 469.69005384 -141.16733193 473.78512598 -144.63085938 477.85302734 C-147.88670586 481.67779134 -151.08299755 485.53287657 -154.19335938 489.47802734 C-162.39249231 499.72694351 -169.92714125 508.74143924 -183.06835938 512.29052734 C-195.82653193 513.38444842 -207.03707848 512.30320599 -217.29101562 503.91552734 C-223.81452034 497.95118018 -228.34756002 491.0860295 -230.06835938 482.29052734 C-230.15134613 479.74417256 -230.18475196 477.22658851 -230.16601562 474.68115234 C-230.16460068 473.95434265 -230.16318573 473.22753296 -230.16172791 472.47869873 C-230.1561473 470.16593241 -230.14359842 467.85326422 -230.13085938 465.54052734 C-230.12584187 463.96891416 -230.1212794 462.39729946 -230.1171875 460.82568359 C-230.10618422 456.98059391 -230.08893299 453.13557725 -230.06835938 449.29052734 C-231.01686768 448.99412354 -231.96537598 448.69771973 -232.94262695 448.39233398 C-236.20902673 447.24094273 -237.52209548 446.30544722 -239.75585938 443.72802734 C-240.31660156 443.10798828 -240.87734375 442.48794922 -241.45507812 441.84912109 C-246.8583867 433.27970919 -246.51241218 424.17210752 -246.46679688 414.41552734 C-246.46882214 412.88053245 -246.47173734 411.3455385 -246.47549438 409.81054688 C-246.47989647 406.60651412 -246.47355551 403.4027337 -246.45947266 400.19873047 C-246.44238183 396.11361601 -246.45223446 392.02909306 -246.47019005 387.94400024 C-246.4810855 384.77819446 -246.47755531 381.61252648 -246.46980667 378.44671631 C-246.46782054 376.94138517 -246.47020747 375.43604109 -246.47724533 373.9307251 C-246.5442391 355.57886546 -246.5442391 355.57886546 -240.75585938 347.91552734 C-236.40565087 343.66648648 -232.83270937 342.24677359 -226.86132812 341.71630859 C-225.96309326 341.63421143 -225.0648584 341.55211426 -224.1394043 341.4675293 C-223.45595947 341.40911865 -222.77251465 341.35070801 -222.06835938 341.29052734 C-222.11549072 339.91501709 -222.11549072 339.91501709 -222.16357422 338.51171875 C-222.26669248 335.06356602 -222.34145575 331.61708314 -222.39794922 328.16796875 C-222.42786706 326.68397954 -222.46861873 325.20016321 -222.52099609 323.71679688 C-222.84127078 314.4037113 -222.64579139 306.61434796 -216.06835938 299.29052734 C-208.54576459 293.32689691 -201.53465301 292.5054082 -192.06835938 293.29052734 C-185.78143494 294.97380066 -181.60355832 298.96464819 -178.06835938 304.29052734 C-173.87551768 313.56469385 -174.62550443 323.47781304 -174.63256836 333.45410156 C-174.62899566 335.79064974 -174.60167506 338.12605782 -174.57226562 340.46240234 C-174.58044815 341.1739447 -174.58863068 341.88548706 -174.59706116 342.61859131 C-174.52337208 347.54781029 -173.31375063 349.68899461 -170.06835938 353.29052734 C-168.07589484 357.19558299 -167.77369072 360.54593315 -167.65429688 364.90380859 C-167.615625 366.15097656 -167.57695312 367.39814453 -167.53710938 368.68310547 C-167.50617188 369.97667969 -167.47523438 371.27025391 -167.44335938 372.60302734 C-167.4046875 373.9159375 -167.36601562 375.22884766 -167.32617188 376.58154297 C-167.2320282 379.81773172 -167.14639586 383.05391669 -167.06835938 386.29052734 C-160.46316382 378.13943496 -153.98475141 369.91931927 -147.72290039 361.5012207 C-142.17394142 354.05661542 -136.4828768 346.720525 -130.72607422 339.43554688 C-129.60175323 337.98071857 -128.50891683 336.50111233 -127.44580078 335.00097656 C-118.36657805 322.45567231 -105.67078735 318.49382715 -91.63085938 313.47802734 C-89.70610339 312.7782868 -87.78187074 312.07710511 -85.8581543 311.37451172 C-82.04336623 309.98317855 -78.22606956 308.59913737 -74.40625 307.22167969 C-68.48598752 305.08439461 -62.58365216 302.90075181 -56.68457031 300.70581055 C-51.81501305 298.89394768 -46.94131213 297.09323819 -42.06835938 295.29052734 C-41.73835937 285.39052734 -41.40835938 275.49052734 -41.06835938 265.29052734 C-42.38835937 264.63052734 -43.70835937 263.97052734 -45.06835938 263.29052734 C-60.45309939 250.17527538 -70.62845237 231.27559517 -72.50585938 211.04833984 C-73.36339172 199.88059203 -73.36339172 199.88059203 -72.06835938 197.29052734 C-72.73480469 197.33693359 -73.40125 197.38333984 -74.08789062 197.43115234 C-84.06190403 197.82174308 -92.51795546 195.3222188 -100.34570312 189.00537109 C-107.91340303 181.47199183 -108.33222135 173.52023415 -108.41845703 163.36889648 C-108.43491478 161.95401443 -108.46206893 160.53921195 -108.50048828 159.12475586 C-108.74116372 150.19988268 -108.34406732 142.82653189 -103.06835938 135.29052734 C-102.40835938 134.63052734 -101.74835938 133.97052734 -101.06835938 133.29052734 C-100.79012438 131.16637575 -100.79012438 131.16637575 -100.87304688 128.69580078 C-100.87965332 127.74010193 -100.88625977 126.78440308 -100.89306641 125.79974365 C-100.91796143 124.2405722 -100.91796143 124.2405722 -100.94335938 122.64990234 C-100.95093262 121.57613342 -100.95850586 120.5023645 -100.96630859 119.39605713 C-100.99894985 114.79688758 -101.05456344 110.19807202 -101.109375 105.59912109 C-101.35095621 83.44993903 -101.55215484 63.81153784 -85.63085938 46.66552734 C-84.78523437 45.88177734 -83.93960938 45.09802734 -83.06835938 44.29052734 C-82.57980469 43.80841797 -82.09125 43.32630859 -81.58789062 42.82958984 C-71.47763114 33.3677318 -58.94136645 30.93737893 -45.56835938 31.16552734 C-44.55515625 31.17455078 -43.54195312 31.18357422 -42.49804688 31.19287109 C-40.02123137 31.21623728 -37.54492558 31.24899566 -35.06835938 31.29052734 C-34.936875 30.21673828 -34.80539063 29.14294922 -34.66992188 28.03662109 C-33.38386558 20.02799779 -28.99491361 13.73351074 -23.06835938 8.29052734 C-15.76662111 3.06012212 -9.08092897 0.05658202 0 0 Z M-74.06835938 57.29052734 C-83.35167623 68.42303609 -85.25131342 78.90156471 -85.16601562 93.04052734 C-85.16460068 93.93924561 -85.16318573 94.83796387 -85.16172791 95.76391602 C-85.15617521 98.6061551 -85.14363175 101.44831247 -85.13085938 104.29052734 C-85.12583825 106.22932828 -85.12127642 108.16813047 -85.1171875 110.10693359 C-85.10622132 114.83482918 -85.08898982 119.56266446 -85.06835938 124.29052734 C-80.97915858 124.39054543 -76.89044627 124.4625275 -72.80029297 124.51025391 C-71.41344781 124.53018077 -70.02668456 124.55733294 -68.64013672 124.59228516 C-59.00331423 124.82885697 -50.46989751 124.56674503 -42.63085938 118.36083984 C-42.11523438 117.71888672 -41.59960938 117.07693359 -41.06835938 116.41552734 C-40.53210938 115.77873047 -39.99585938 115.14193359 -39.44335938 114.48583984 C-36.58558368 109.92314115 -35.81848777 105.51061236 -35.84130859 100.19335938 C-35.84153519 98.42220261 -35.84153519 98.42220261 -35.84176636 96.61526489 C-35.85208893 95.35567963 -35.8624115 94.09609436 -35.87304688 92.79833984 C-35.87729172 90.8467244 -35.87729172 90.8467244 -35.88162231 88.85568237 C-35.88922263 85.41316915 -35.90883965 81.97082732 -35.93103027 78.52838135 C-35.95156677 75.00901609 -35.96064064 71.48962288 -35.97070312 67.97021484 C-35.99208936 61.07691571 -36.02618127 54.18372978 -36.06835938 47.29052734 C-39.10628002 47.24646403 -42.1435535 47.2143252 -45.18164062 47.18896484 C-46.03600708 47.17534912 -46.89037354 47.1617334 -47.77062988 47.14770508 C-57.98636038 47.08381068 -66.69945801 49.99952134 -74.06835938 57.29052734 Z M-32.69335938 129.54052734 C-38.29424402 134.52802965 -43.60357381 136.98145675 -50.83007812 138.89990234 C-51.81322998 139.16254883 -52.79638184 139.42519531 -53.80932617 139.69580078 C-54.55480713 139.89206055 -55.30028809 140.08832031 -56.06835938 140.29052734 C-56.13816511 149.74891384 -56.19132482 159.20721034 -56.22379589 168.66579914 C-56.23938792 173.05878677 -56.26050663 177.45159691 -56.29467773 181.84448242 C-56.32750363 186.09147551 -56.34526087 190.3382989 -56.3529911 194.58540916 C-56.35849324 196.19796605 -56.36923645 197.81051467 -56.38554955 199.42299843 C-56.55779917 217.1704987 -52.93517782 231.96882592 -40.27148438 245.11474609 C-39.54445312 245.83275391 -38.81742188 246.55076172 -38.06835938 247.29052734 C-37.52695313 247.85384766 -36.98554688 248.41716797 -36.42773438 248.99755859 C-23.42335526 261.44366891 -3.46325248 265.44401169 13.93164062 265.29052734 C33.69949758 264.01073581 50.872019 256.94784991 64.61914062 242.60302734 C76.56373104 228.80316896 78.40865769 212.83080578 78.22460938 195.27099609 C78.21899854 193.6753225 78.2147355 192.07964367 78.21174622 190.48396301 C78.20041428 186.3296322 78.17105095 182.17562734 78.13763428 178.02142334 C78.10667871 173.76416429 78.09318701 169.50685141 78.078125 165.24951172 C78.04616717 156.92970241 77.99511628 148.61015568 77.93164062 140.29052734 C76.95604187 140.2846611 75.98044312 140.27879486 74.97528076 140.27275085 C65.73712281 140.21529433 56.49919508 140.14241501 47.26127243 140.05481243 C42.5130664 140.01027101 37.76494298 139.97098004 33.01660156 139.9440918 C28.42580344 139.91789575 23.83532601 139.87738078 19.24472809 139.82734108 C17.50188466 139.81078178 15.7589859 139.79919995 14.01607513 139.79291344 C-10.6824314 139.69489817 -10.6824314 139.69489817 -19.63085938 132.79052734 C-20.41589844 132.20271484 -21.2009375 131.61490234 -22.00976562 131.00927734 C-24.06835938 129.29052734 -24.06835938 129.29052734 -25.72070312 127.57177734 C-28.65746438 124.77972606 -30.30377018 127.27470173 -32.69335938 129.54052734 Z M-88.06835938 143.29052734 C-88.75929687 143.89638672 -89.45023438 144.50224609 -90.16210938 145.12646484 C-93.16061403 150.103491 -92.68643075 155.03032645 -92.63085938 160.72802734 C-92.65470703 161.84757812 -92.67855469 162.96712891 -92.703125 164.12060547 C-92.78520452 170.99312273 -92.78520452 170.99312273 -89.78320312 176.95068359 C-83.51246639 182.35524662 -81.3871027 181.29052734 -72.06835938 181.29052734 C-72.06835938 167.76052734 -72.06835938 154.23052734 -72.06835938 140.29052734 C-81.42776728 139.51652379 -81.42776728 139.51652379 -88.06835938 143.29052734 Z M93.93164062 140.29052734 C93.93164062 153.82052734 93.93164062 167.35052734 93.93164062 181.29052734 C104.03010961 181.99158367 104.03010961 181.99158367 110.93164062 177.29052734 C114.56256417 171.8049594 114.41547843 166.6430196 114.36914062 160.29052734 C114.38912109 159.31857422 114.40910156 158.34662109 114.4296875 157.34521484 C114.42558801 151.32716544 113.90383777 147.88291883 109.93164062 143.29052734 C104.87341875 138.69214382 101.66036097 140.29052734 93.93164062 140.29052734 Z M-25.06835938 275.29052734 C-26.44510719 282.58476924 -27.39748782 290.11910309 -25.06835938 297.29052734 C-20.36286906 303.57452878 -13.37935262 307.55267632 -6.77050781 311.59228516 C-4.30771277 313.14009888 -2.02356426 314.77540973 0.26757812 316.56396484 C1.20996338 317.29534668 1.20996338 317.29534668 2.17138672 318.04150391 C3.31133318 318.9313262 4.44735783 319.8262052 5.57861328 320.72705078 C7.95108063 322.47312659 9.30411667 323.38449932 12.27929688 322.93896484 C17.06876178 319.96230183 21.38070061 316.40473505 25.75341797 312.85498047 C29.45478089 309.884317 33.01192556 307.12184293 37.22460938 304.91552734 C42.83373662 301.97228417 42.83373662 301.97228417 46.93164062 297.29052734 C48.56880481 290.082077 47.80026952 282.56601028 46.93164062 275.29052734 C45.96303101 275.58600464 45.96303101 275.58600464 44.97485352 275.88745117 C22.02358439 282.83986621 -2.48870658 284.85671612 -25.06835938 275.29052734 Z M-204.23925781 310.90283203 C-206.64358084 314.04141708 -206.53031393 315.88302692 -206.45898438 319.80615234 C-206.44609375 321.05654297 -206.43320313 322.30693359 -206.41992188 323.59521484 C-206.38640625 324.89716797 -206.35289062 326.19912109 -206.31835938 327.54052734 C-206.3003125 328.85794922 -206.28226563 330.17537109 -206.26367188 331.53271484 C-206.21652819 334.78562891 -206.14478554 338.03816951 -206.06835938 341.29052734 C-201.11835938 341.29052734 -196.16835937 341.29052734 -191.06835938 341.29052734 C-190.98742538 337.06097681 -190.92788368 332.83297523 -190.88085938 328.60302734 C-190.85572266 327.40484375 -190.83058594 326.20666016 -190.8046875 324.97216797 C-190.79501953 323.81523437 -190.78535156 322.65830078 -190.77539062 321.46630859 C-190.75968018 320.40323486 -190.74396973 319.34016113 -190.7277832 318.24487305 C-191.11732713 314.86575404 -192.06040484 313.01061771 -194.06835938 310.29052734 C-197.71756607 308.465924 -200.94423284 308.45564974 -204.23925781 310.90283203 Z M-228.06835938 359.29052734 C-230.29795297 362.73543542 -230.33202419 365.67694991 -230.35888672 369.72387695 C-230.37164642 371.028806 -230.38440613 372.33373505 -230.39755249 373.6782074 C-230.40060988 375.09976045 -230.40283778 376.5213155 -230.40429688 377.94287109 C-230.4107262 379.40491364 -230.41745466 380.8669549 -230.42446899 382.32899475 C-230.43643394 385.39131656 -230.44015057 388.45352561 -230.43896484 391.51586914 C-230.43876154 395.43458638 -230.46607762 399.35257929 -230.50050926 403.27112484 C-230.52277498 406.29007776 -230.52680252 409.30885615 -230.52574539 412.32788277 C-230.52810132 413.77234967 -230.53692451 415.21682139 -230.55241013 416.6612072 C-230.57206217 418.6833038 -230.56371158 420.70561349 -230.55419922 422.7277832 C-230.55704926 423.87709824 -230.55989929 425.02641327 -230.56283569 426.21055603 C-229.95565994 429.9925044 -228.81637467 431.65461655 -226.06835938 434.29052734 C-224.14204669 435.01693848 -224.14204669 435.01693848 -222.08178711 434.90576172 C-221.31096298 434.91506714 -220.54013885 434.92437256 -219.74595642 434.93395996 C-218.92293533 434.9175647 -218.09991425 434.90116943 -217.25195312 434.88427734 C-216.39908218 434.88431763 -215.54621124 434.88435791 -214.66749573 434.88439941 C-212.86785497 434.87904631 -211.06821464 434.86147232 -209.26879883 434.83251953 C-206.51180783 434.79061775 -203.75725608 434.7914547 -201 434.79833984 C-199.25063404 434.78784871 -197.50128068 434.77491102 -195.75195312 434.75927734 C-194.92690781 434.75907593 -194.10186249 434.75887451 -193.2518158 434.75866699 C-189.01331214 434.78333162 -189.01331214 434.78333162 -185.34559631 432.94665527 C-183.39221202 430.41380159 -183.77973328 428.23793643 -183.88085938 425.10302734 C-183.90792969 424.01634766 -183.935 422.92966797 -183.96289062 421.81005859 C-184.01509766 420.56289063 -184.01509766 420.56289063 -184.06835938 419.29052734 C-184.84026611 419.27070801 -185.61217285 419.25088867 -186.4074707 419.23046875 C-189.89894896 419.13531591 -193.38982089 419.02559687 -196.88085938 418.91552734 C-198.09580078 418.88458984 -199.31074219 418.85365234 -200.5625 418.82177734 C-201.72587891 418.78310547 -202.88925781 418.74443359 -204.08789062 418.70458984 C-205.16143799 418.67316895 -206.23498535 418.64174805 -207.34106445 418.609375 C-210.06835938 418.29052734 -210.06835938 418.29052734 -213.06835938 416.29052734 C-214.1882705 412.69081303 -214.36264196 410.95266317 -212.81835938 407.47802734 C-211.06835938 405.29052734 -211.06835938 405.29052734 -208.06835938 404.29052734 C-206.22369496 404.14162987 -204.37478662 404.04261724 -202.52539062 403.97412109 C-201.45224609 403.93222656 -200.37910156 403.89033203 -199.2734375 403.84716797 C-198.15388672 403.80785156 -197.03433594 403.76853516 -195.88085938 403.72802734 C-194.74970703 403.68484375 -193.61855469 403.64166016 -192.453125 403.59716797 C-189.65834913 403.49103724 -186.8633704 403.39027337 -184.06835938 403.29052734 C-184.06835938 398.34052734 -184.06835938 393.39052734 -184.06835938 388.29052734 C-185.91042969 388.24154297 -187.7525 388.19255859 -189.65039062 388.14208984 C-192.06056237 388.06706504 -194.47071786 387.99151709 -196.88085938 387.91552734 C-198.09580078 387.88458984 -199.31074219 387.85365234 -200.5625 387.82177734 C-201.72587891 387.78310547 -202.88925781 387.74443359 -204.08789062 387.70458984 C-205.69821167 387.6574585 -205.69821167 387.6574585 -207.34106445 387.609375 C-210.06835938 387.29052734 -210.06835938 387.29052734 -213.06835938 385.29052734 C-214.19854565 381.65778576 -214.38020789 379.95877416 -212.75585938 376.47802734 C-211.06835938 374.29052734 -211.06835938 374.29052734 -209.06835938 373.29052734 C-207.18363079 373.13708526 -205.29408064 373.04093163 -203.40429688 372.97412109 C-202.2828125 372.93222656 -201.16132813 372.89033203 -200.00585938 372.84716797 C-198.83023438 372.80785156 -197.65460938 372.76853516 -196.44335938 372.72802734 C-195.26 372.68484375 -194.07664063 372.64166016 -192.85742188 372.59716797 C-189.9278561 372.49085308 -186.99820349 372.38882093 -184.06835938 372.29052734 C-183.93275074 370.54268267 -183.83608729 368.79178808 -183.75585938 367.04052734 C-183.66884766 365.57873047 -183.66884766 365.57873047 -183.58007812 364.08740234 C-183.84688414 361.14186885 -183.84688414 361.14186885 -186.08764648 358.95996094 C-189.81257413 356.87370856 -192.91650224 356.74746616 -197.07226562 356.82958984 C-197.83256577 356.83050629 -198.59286591 356.83142273 -199.37620544 356.83236694 C-200.97734858 356.83838825 -202.57848122 356.85409013 -204.17944336 356.87890625 C-206.62656248 356.91546315 -209.07216724 356.91992498 -211.51953125 356.91943359 C-213.07878909 356.92926411 -214.63803671 356.94092083 -216.19726562 356.95458984 C-216.92651749 356.95681549 -217.65576935 356.95904114 -218.40711975 356.96133423 C-223.57380301 357.03630997 -223.57380301 357.03630997 -228.06835938 359.29052734 Z M-105.06835938 419.29052734 C-105.06835938 434.80052734 -105.06835938 450.31052734 -105.06835938 466.29052734 C-98.62369141 466.31179688 -98.62369141 466.31179688 -92.04882812 466.33349609 C-88.62449824 466.3587378 -85.20029319 466.3889643 -81.77603912 466.42256927 C-78.16042129 466.45668234 -74.54523042 466.48199454 -70.92944336 466.48608398 C-67.44718022 466.49036053 -63.96587565 466.51876649 -60.48391151 466.56395912 C-58.50809991 466.58328316 -56.53209513 466.57757038 -54.55619812 466.57157898 C-53.3551796 466.59122208 -52.15416107 466.61086517 -50.91674805 466.63110352 C-49.32790047 466.64109627 -49.32790047 466.64109627 -47.70695496 466.65129089 C-45.06835938 467.29052734 -45.06835938 467.29052734 -43.19111633 469.63252258 C-41.77424743 472.98680533 -42.06801595 474.82780009 -43.06835938 478.29052734 C-45.73828361 480.96045158 -47.0707596 480.562524 -50.80322266 480.609375 C-52.60486374 480.63917953 -52.60486374 480.63917953 -54.44290161 480.66958618 C-55.7450058 480.68113739 -57.04710999 480.6926886 -58.38867188 480.70458984 C-59.73104045 480.72329504 -61.07339719 480.74286797 -62.41574097 480.76327515 C-65.95022615 480.81467126 -69.48474949 480.85425661 -73.01940918 480.89141846 C-76.62566625 480.93141148 -80.2317636 480.98252518 -83.83789062 481.03271484 C-90.91460286 481.12956252 -97.9914063 481.21291118 -105.06835938 481.29052734 C-105.06835938 486.57052734 -105.06835938 491.85052734 -105.06835938 497.29052734 C-33.45835937 497.29052734 38.15164063 497.29052734 111.93164062 497.29052734 C111.93164062 492.01052734 111.93164062 486.73052734 111.93164062 481.29052734 C110.27206833 481.28688171 108.61249603 481.28323608 106.90263367 481.27947998 C91.28961014 481.24259527 75.67680555 481.18513285 60.06393719 481.1066246 C52.0365178 481.06678998 44.00919707 481.03442007 35.98168945 481.01953125 C28.98610979 481.00653754 21.9907468 480.97963168 14.99528915 480.93591428 C11.29009152 480.91324767 7.58516165 480.89761974 3.87988853 480.89864349 C-0.25331543 480.89952511 -4.38572598 480.86935141 -8.51879883 480.83642578 C-10.36809242 480.84397133 -10.36809242 480.84397133 -12.25474548 480.85166931 C-13.37795197 480.8377565 -14.50115845 480.82384369 -15.65840149 480.80950928 C-16.63642385 480.80582211 -17.6144462 480.80213493 -18.6221056 480.79833603 C-21.06835938 480.29052734 -21.06835938 480.29052734 -22.91820049 478.48465347 C-24.64641218 475.18779208 -23.91823287 472.82077108 -23.06835938 469.29052734 C-20.46905542 466.69122339 -19.39926639 467.03250987 -15.77865601 467.01205444 C-14.65682419 467.00089096 -13.53499237 466.98972748 -12.37916565 466.97822571 C-10.52447914 466.97498543 -10.52447914 466.97498543 -8.63232422 466.97167969 C-6.68604881 466.95661125 -6.68604881 466.95661125 -4.70045471 466.9412384 C-1.13664986 466.913872 2.42711533 466.89876946 5.99099779 466.88581038 C9.71331377 466.87020875 13.43554839 466.84340915 17.1578064 466.81777954 C24.20902835 466.770939 31.26026553 466.73422051 38.31156385 466.70110667 C46.33810986 466.66292246 54.36457425 466.61350267 62.39105153 466.56312251 C78.90452828 466.4597242 95.41803879 466.37197299 111.93164062 466.29052734 C111.93164062 450.78052734 111.93164062 435.27052734 111.93164062 419.29052734 C40.32164062 419.29052734 -31.28835937 419.29052734 -105.06835938 419.29052734 Z " fill="#000000" transform="translate(284.068359375,-0.29052734375)"/>
<path d="M0 0 C0.68999084 -0.0049649 1.37998169 -0.00992981 2.09088135 -0.01504517 C4.36821501 -0.02962076 6.64547896 -0.0364618 8.92285156 -0.04199219 C10.51222738 -0.04774833 12.1016032 -0.053506 13.690979 -0.05926514 C17.02315595 -0.06976266 20.35530886 -0.07561319 23.6875 -0.07910156 C27.94206445 -0.08457745 32.19630746 -0.1085912 36.45077133 -0.13707352 C39.73489283 -0.15576706 43.01893802 -0.1609091 46.30310822 -0.16243744 C47.87068688 -0.16545039 49.43826464 -0.17343273 51.00579071 -0.18662262 C70.35033852 -0.33775139 70.35033852 -0.33775139 78.06347656 7.16113281 C83.70038277 13.92542026 84.45612024 21.92779521 83.72776794 30.43963623 C83.65034866 31.28358948 83.57292938 32.12754272 83.49316406 32.99707031 C81.53577736 56.61600405 81.53577736 56.61600405 91.28613281 77.23925781 C97.01543313 83.45980035 103.51904369 88.90433081 110.28198242 93.96435547 C112.97393165 96.09041174 114.77145164 97.6364553 115.43457031 101.09863281 C115.46744141 102.11957031 115.46744141 102.11957031 115.50097656 103.16113281 C115.5409375 103.84175781 115.58089844 104.52238281 115.62207031 105.22363281 C115.06347656 107.16113281 115.06347656 107.16113281 112.91455078 108.76391602 C109.62525378 110.37589125 107.53250528 110.50796575 103.88769531 110.45410156 C102.73076172 110.44443359 101.57382813 110.43476563 100.38183594 110.42480469 C99.18365234 110.39966797 97.98546875 110.37453125 96.75097656 110.34863281 C94.92469727 110.32833008 94.92469727 110.32833008 93.06152344 110.30761719 C90.06172311 110.27232542 87.06282682 110.22301762 84.06347656 110.16113281 C84.0828125 111.98644531 84.0828125 111.98644531 84.10253906 113.84863281 C84.09245768 121.48360247 83.16404913 128.34894127 77.98754883 134.27896118 C69.87948921 142.21045111 59.84264287 141.9034706 49.25097656 141.82519531 C47.63012327 141.82857136 46.00927245 141.83343052 44.38842773 141.83969116 C41.00610031 141.84702549 37.62443713 141.83646958 34.2421875 141.81298828 C29.93154514 141.78450162 25.62245978 141.80092432 21.31187439 141.8308506 C17.96924348 141.84901772 14.62697478 141.84312287 11.28433228 141.83021164 C9.69609385 141.82690352 8.1078213 141.83087219 6.5196228 141.84260941 C-2.41740391 141.89418059 -10.45956637 141.75013232 -17.93652344 136.16113281 C-25.12192928 128.74045524 -26.23846775 121.20670703 -26.21118164 111.23779297 C-26.21629257 110.26611679 -26.2214035 109.29444061 -26.22666931 108.2933197 C-26.24051828 105.09554813 -26.239612 101.89799323 -26.23730469 98.70019531 C-26.24119429 96.46731487 -26.24552951 94.23443516 -26.25028992 92.0015564 C-26.25774212 87.32620849 -26.25746815 82.65093611 -26.25219727 77.97558594 C-26.24640517 71.99824495 -26.26333246 66.02121407 -26.28654194 60.04392433 C-26.30130781 55.43354499 -26.30214706 50.82323983 -26.29903221 46.21284103 C-26.29954402 44.00973268 -26.30475535 41.80662001 -26.31484413 39.6035347 C-26.32724588 36.51657486 -26.32039413 33.43021272 -26.30883789 30.34326172 C-26.31648163 29.44219193 -26.32412537 28.54112213 -26.33200073 27.61274719 C-26.27334452 20.48730117 -25.09934808 13.64167735 -20.68652344 7.84863281 C-14.44528054 1.74923634 -8.57845998 0.04700716 0 0 Z M-8.93652344 19.16113281 C-9.83440367 21.85477352 -10.06532484 23.40781461 -10.07696533 26.17074585 C-10.08267548 26.98381699 -10.08838562 27.79688812 -10.0942688 28.63459778 C-10.09538666 29.52297836 -10.09650452 30.41135895 -10.09765625 31.32666016 C-10.10262115 32.26516312 -10.10758606 33.20366608 -10.11270142 34.17060852 C-10.12732254 37.27943654 -10.13412467 40.38821354 -10.13964844 43.49707031 C-10.14539955 45.65556846 -10.15115729 47.81406659 -10.15692139 49.9725647 C-10.16743097 54.50026691 -10.17327405 59.02795137 -10.17675781 63.55566406 C-10.18224505 69.35861996 -10.20627829 75.16134151 -10.23472977 80.96422386 C-10.25334795 85.42345873 -10.2585613 89.88263704 -10.26009369 94.3419075 C-10.26312216 96.48134265 -10.27115719 98.62077675 -10.28427887 100.7601738 C-10.30132339 103.7525698 -10.299463 106.74439162 -10.29296875 109.73681641 C-10.30218353 110.62114853 -10.31139832 111.50548065 -10.32089233 112.41661072 C-10.28872953 117.14480406 -10.04280638 120.33627278 -6.93652344 124.16113281 C-4.10323679 125.57777614 -1.6990183 125.31195868 1.46923828 125.33813477 C2.12634796 125.34470596 2.78345764 125.35127716 3.46047974 125.35804749 C5.6380423 125.37778063 7.81553595 125.38944234 9.99316406 125.39941406 C10.73655155 125.40348959 11.47993904 125.40756512 12.24585342 125.41176414 C16.17968722 125.43262389 20.11348613 125.44692659 24.04736328 125.45629883 C28.11191489 125.46736975 32.17591999 125.50177705 36.24027824 125.54147053 C39.3646853 125.56760426 42.48896142 125.57598767 45.61346817 125.57958031 C47.11180441 125.58445388 48.6101345 125.59608991 50.10836411 125.6146183 C52.20565996 125.63894519 54.30153229 125.63805784 56.39892578 125.63110352 C57.59202362 125.63696976 58.78512146 125.642836 60.01437378 125.64888 C63.69175655 125.06063053 64.8319923 124.08696925 67.06347656 121.16113281 C68.03664466 118.24162851 68.25643117 116.1066833 68.37988281 113.05566406 C68.42177734 112.07275391 68.46367187 111.08984375 68.50683594 110.07714844 C68.54615234 109.05298828 68.58546875 108.02882813 68.62597656 106.97363281 C68.69075195 105.41999023 68.69075195 105.41999023 68.75683594 103.83496094 C68.86292022 101.27715091 68.96497802 98.71924436 69.06347656 96.16113281 C72.62434315 94.97417728 76.0367868 94.81017863 79.75097656 94.59863281 C80.80381836 94.53385742 80.80381836 94.53385742 81.87792969 94.46777344 C83.60622863 94.36195922 85.33482766 94.261067 87.06347656 94.16113281 C86.32097656 93.25363281 85.57847656 92.34613281 84.81347656 91.41113281 C84.2754541 90.74831299 83.73743164 90.08549316 83.18310547 89.40258789 C81.06618375 87.02078242 81.06618375 87.02078242 78.11181641 85.05053711 C73.50385769 81.62157561 69.79497335 78.16998797 68.39916992 72.4286499 C67.43197711 64.55318584 67.72319576 56.63789317 67.93847656 48.72363281 C67.98180919 45.14652449 68.00839956 41.56972724 68.02810669 37.99241638 C68.04611316 35.77741151 68.08093367 33.5624623 68.13473511 31.34803772 C68.15359772 30.34606857 68.17246033 29.34409943 68.19189453 28.31176758 C68.21476532 27.43529068 68.23763611 26.55881378 68.26119995 25.65577698 C68.03273293 22.77324538 67.38037372 20.73255603 66.06347656 18.16113281 C62.46329599 15.76101243 60.82536461 15.90306023 56.54418945 15.88647461 C55.55830589 15.87880821 55.55830589 15.87880821 54.55250549 15.87098694 C52.38028858 15.85708926 50.20838889 15.8580478 48.03613281 15.86035156 C46.52542503 15.85646466 45.01471834 15.85213 43.50401306 15.84736633 C40.33735614 15.83990372 37.1708107 15.84019562 34.00415039 15.84545898 C29.94754378 15.85125312 25.89139382 15.83432458 21.83486271 15.81111431 C18.71473017 15.79637699 15.59470761 15.79550526 12.47454643 15.79862404 C10.97902967 15.7981108 9.48350676 15.79287257 7.98802376 15.78281212 C5.89576744 15.7704648 3.80440045 15.7772281 1.7121582 15.78881836 C-0.07296425 15.78787422 -0.07296425 15.78787422 -1.89414978 15.78691101 C-5.22596519 16.19673508 -6.59441828 16.79446414 -8.93652344 19.16113281 Z " fill="#000000" transform="translate(63.9365234375,122.8388671875)"/>
<path d="M0 0 C2.875 1.5 2.875 1.5 5 4 C5.66168686 8.06515357 5.9660741 10.51657045 3.68560791 14.01828003 C1.75754336 16.18552111 -0.26228783 18.18759694 -2.3671875 20.18359375 C-3.11710968 20.92456802 -3.86703186 21.6655423 -4.63967896 22.42897034 C-7.03330914 24.78454641 -9.45355759 27.11055877 -11.875 29.4375 C-13.49786169 31.02879795 -15.11897713 32.62187888 -16.73828125 34.21679688 C-19.699254 37.11931901 -22.66397872 40.01749136 -25.65185547 42.89233398 C-26.25142059 43.46999008 -26.85098572 44.04764618 -27.46871948 44.64280701 C-29.52629695 46.46646354 -30.90609077 46.98211253 -33.625 47.5 C-38.82207024 46.73006367 -41.35764333 43.61757873 -45 40 C-45.97369984 39.05181781 -46.94767354 38.10391679 -47.921875 37.15625 C-56.87318436 28.36960891 -56.87318436 28.36960891 -57.3125 23.625 C-57 20 -57 20 -55.5 17.5625 C-52.76261095 15.85163184 -50.56213075 15.08468235 -47.3046875 15.1953125 C-42.10497741 17.0108045 -38.5310401 21.94798677 -35 26 C-31.10956367 24.42204085 -28.52304632 21.76445619 -25.6484375 18.80859375 C-25.1483316 18.30328629 -24.64822571 17.79797882 -24.13296509 17.27735901 C-22.54213057 15.66876916 -20.95816916 14.05363181 -19.375 12.4375 C-17.78382224 10.81869762 -16.19120299 9.20138179 -14.59561157 7.58692932 C-13.60452902 6.58359573 -12.61613192 5.57760092 -11.63070679 4.56871033 C-7.7041537 0.58484143 -5.68494926 -0.55734797 0 0 Z " fill="#000000" transform="translate(119,170)"/>
<path d="M0 0 C1.89453125 0.47265625 1.89453125 0.47265625 4.20703125 2.41015625 C6.01702768 5.69496458 7.02063932 8.8809917 8.1171875 12.44921875 C9.44407498 15.90312685 11.54727792 16.82225809 14.70703125 18.34765625 C18.38391822 18.55776408 20.73274752 17.25475253 23.89453125 15.47265625 C26.01072837 12.26187441 26.90380954 9.43786266 27.89453125 5.72265625 C28.89453125 2.47265625 28.89453125 2.47265625 31.89453125 0.47265625 C35.41431676 0.15267575 37.99154906 0.09245322 41.26953125 1.47265625 C43.78528844 4.5689728 44.03812681 7.62168447 43.89453125 11.47265625 C42.78114115 19.52531486 39.03270957 25.23274793 32.89453125 30.47265625 C25.92750736 34.86649362 18.82148931 36.12113135 10.76953125 34.78515625 C3.55775958 33.12854714 -2.13156603 28.90357171 -6.26953125 22.73828125 C-9.63339015 17.07538209 -11.01058557 12.09706198 -10.10546875 5.47265625 C-7.69604599 0.65381072 -5.15078136 -0.37269104 0 0 Z " fill="#000000" transform="translate(278.10546875,201.52734375)"/>
<path d="M0 0 C2.8195429 2.53889395 3.01733958 4.14680842 3.46875 7.96875 C3.4951987 9.478971 3.50512884 10.98955612 3.5 12.5 C3.52835937 13.25925781 3.55671875 14.01851562 3.5859375 14.80078125 C3.60021919 18.87820386 3.53753328 20.42477657 0.66015625 23.50390625 C-2.56988206 25.32050636 -4.34680523 25.54409284 -8 25 C-11.1359157 23.22015595 -11.84102736 22.47691793 -13 19 C-13.14619515 16.71148355 -13.22091336 14.41799684 -13.25 12.125 C-13.28867187 10.30355469 -13.28867187 10.30355469 -13.328125 8.4453125 C-12.97579766 4.74587543 -12.28852215 2.89808179 -10 0 C-6.20519658 -1.26493447 -3.87641726 -0.89988258 0 0 Z " fill="#000000" transform="translate(332,152)"/>
<path d="M0 0 C2.58455285 1.89533875 2.96275506 2.88826517 4 6 C4.11979145 7.95566503 4.17528496 9.91570766 4.1875 11.875 C4.20167969 12.90367187 4.21585937 13.93234375 4.23046875 14.9921875 C3.99345965 18.08535707 3.3740617 20.23224714 2 23 C-0.6597357 25.16719206 -2.08837596 24.99534863 -5.5625 24.8125 C-9.03621416 23.99144029 -9.91176134 23.70842693 -12 21 C-12.64169329 18.05156855 -12.50951997 15.07319119 -12.5 12.0625 C-12.52835938 11.25103516 -12.55671875 10.43957031 -12.5859375 9.60351562 C-12.59969392 5.41124511 -12.5770438 3.64355054 -9.6953125 0.4296875 C-6.02186893 -1.51883474 -3.95171728 -1.09769924 0 0 Z " fill="#000000" transform="translate(267,152)"/>
</svg>
